<svg xmlns="http://www.w3.org/2000/svg" viewBox="0 0 1252 802"><defs><style>.cls-1{fill:#736357;}.cls-2{fill:#00b8a9;}.cls-3{fill:#ffde7d;}.cls-4{fill:#2d4059;}.cls-5{fill:#ea5455;}.cls-6{fill:#ffb400;}.cls-7{fill:#00adb5;}</style></defs><g id="Layer_1" data-name="Layer 1"><path class="cls-1" d="M293.33,378.38a46.49,46.49,0,0,1-7,4.15c-2.4,1.21-4.86,2.26-7.36,3.23a106.32,106.32,0,0,1-15.42,4.57,114.25,114.25,0,0,1-32.4,2.24,92.58,92.58,0,0,1-32-8.11,121.81,121.81,0,0,1-27.76-18.07,119.88,119.88,0,0,1-21.65-24.33,125.55,125.55,0,0,1-14-28.82,129.12,129.12,0,0,1-4.86-62,1,1,0,0,1,2,.18c-.2,20.3,3.83,40.35,12.24,58.1a116.34,116.34,0,0,0,15.48,24.63,104.4,104.4,0,0,0,20.78,19.53,79.8,79.8,0,0,0,12.18,7.08,120.13,120.13,0,0,0,13,5.14,238.84,238.84,0,0,0,27.17,7,213.6,213.6,0,0,0,28.69,3.51c4.91.32,9.87.45,14.9.5s10.15,0,15.25-.37h.07a1,1,0,0,1,.69,1.85Z"/><path class="cls-1" d="M281.48,376.72a72.15,72.15,0,0,1,1.26-15.79A95.43,95.43,0,0,1,287,345.56a99.05,99.05,0,0,1,15.94-28.2,83.17,83.17,0,0,1,11.59-11.77,84.6,84.6,0,0,1,13.74-9.26A122.23,122.23,0,0,1,359,285.12a118.74,118.74,0,0,1,32-2.78A128,128,0,0,1,422,288.08a129.67,129.67,0,0,1,52.23,32.23,1,1,0,0,1-1.32,1.5,133.32,133.32,0,0,0-53.43-24.05,115.74,115.74,0,0,0-28.63-2.12,104.15,104.15,0,0,0-27.73,4.92,87.62,87.62,0,0,0-24.53,12.63,181.27,181.27,0,0,0-20.85,17.56,165.33,165.33,0,0,0-18.28,21.36,287.44,287.44,0,0,0-16.07,25.09,1,1,0,0,1-1.42.38A1.07,1.07,0,0,1,281.48,376.72Z"/><path class="cls-1" d="M228.64,704.1c.34-2.69.8-5.31,1.24-7.94.25-1.3.46-2.61.68-3.92l.72-3.89,1.45-7.74.77-3.83c.25-1.28.47-2.57.74-3.84l6.09-30.22c2-10,3.95-19.89,5.82-29.75s3.61-19.68,5.31-29.46,3.42-19.52,5.21-29.24,3.61-19.45,5.2-29.25c.78-4.91,1.51-9.82,2.14-14.76s1.1-9.89,1.53-14.85c.73-9.94.76-19.93.7-30.12s-.36-20.63-.3-31.24.42-21.38,1.3-32.07l.77-8c.28-2.66.62-5.32.93-8,.7-5.3,1.41-10.58,2.39-15.82.48-2.62.92-5.25,1.43-7.86l1.64-7.8.82-3.9.93-3.88L278,339a432.23,432.23,0,0,1,48.66-115.94,2,2,0,0,1,3.57,1.8c-15.71,38.24-27,77.88-32.35,118l-.93,7.53-.46,3.77-.37,3.77-.71,7.53c-.21,2.52-.34,5-.52,7.55-.73,10.05-1.19,20.08-1.15,30.06-.11,20,1.94,39.78,3.66,60.8.41,5.25.79,10.53,1.09,15.88.17,2.66.28,5.34.41,8l.38,8.06c.51,10.76.74,21.57.57,32.4a285,285,0,0,1-2.24,32.38,247.7,247.7,0,0,1-6.4,31.76,310.78,310.78,0,0,1-10.11,30.67,304.41,304.41,0,0,1-13.17,29.37,286.34,286.34,0,0,1-16.14,27.75q-4.41,6.7-9.27,13.13c-3.22,4.29-6.62,8.46-10.26,12.48a2.09,2.09,0,0,1-3.63-1.65Z"/><path class="cls-2" d="M204.13,106.45l40.24,13.64a30.11,30.11,0,0,1,20.34,30.85l-3.46,35.34L226.71,178a30.08,30.08,0,0,1-22.54-29.1Z"/><path class="cls-3" d="M191.56,140.71l-40.39,13.22a30.1,30.1,0,0,1-34.78-12.49L98,111.08,130.55,97a30.1,30.1,0,0,1,35.5,9.77Z"/><path class="cls-4" d="M195.06,171.1l.52,47.78A33.83,33.83,0,0,1,170.43,252l-38.79,9.51-4.12-39.73A33.84,33.84,0,0,1,150,187Z"/><path class="cls-5" d="M327.74,225.53l-31.07-43.36a37.78,37.78,0,0,1,1.82-46.36l29.38-33.53L357.08,136a37.76,37.76,0,0,1,1.71,46.19Z"/><path class="cls-6" d="M374.48,175.92l28.68-38.23a33.84,33.84,0,0,1,40.1-10.93l36.56,16.07-20.92,34a33.84,33.84,0,0,1-39,13.9Z"/><path class="cls-2" d="M111.85,422.47l6-17.78a13.28,13.28,0,0,1,13.63-9l15.61,1.52-3.64,15.27a13.31,13.31,0,0,1-12.87,10Z"/><path class="cls-3" d="M255.71,254.34l18.7,57.13a42.57,42.57,0,0,1-17.67,49.2l-42.93,26.08-20-46.11a42.57,42.57,0,0,1,13.82-50.22Z"/><path class="cls-4" d="M331.28,436.46l21.37-.23a15.12,15.12,0,0,1,14.79,11.25l4.25,17.34-17.77,1.85a15.15,15.15,0,0,1-15.55-10.06Z"/><path class="cls-5" d="M361.53,374.08l-26,18.61a22.62,22.62,0,0,1-27.76-1.09L287.71,374l20.18-17.49a22.63,22.63,0,0,1,27.67-1Z"/><path class="cls-6" d="M267.58,501.9l-28-21a24.83,24.83,0,0,1-8-29.43l11.79-26.83,25,15.35a24.85,24.85,0,0,1,10.2,28.63Z"/><path class="cls-2" d="M514.92,284.88l34.43,11.67a25.74,25.74,0,0,1,17.39,26.39l-3,30.24-29.56-7.06A25.75,25.75,0,0,1,515,321.22Z"/><path class="cls-3" d="M586.83,236.88l-35.6,11.65a26.52,26.52,0,0,1-30.65-11l-16.26-26.76,28.74-12.45a26.52,26.52,0,0,1,31.29,8.61Z"/><path class="cls-4" d="M422,392.53l.12,11.39a8.08,8.08,0,0,1-6,7.88l-9.24,2.26-1-9.46a8.07,8.07,0,0,1,5.35-8.29Z"/><path class="cls-5" d="M473.56,357.46l-9.18-12.81a11.16,11.16,0,0,1,.54-13.69l8.68-9.9,8.62,9.95a11.14,11.14,0,0,1,.51,13.64Z"/><path class="cls-7" d="M339.77,301.14l39.36-52.47a46.46,46.46,0,0,1,55-15l50.18,22.05-28.71,46.71a46.45,46.45,0,0,1-53.54,19.08Z"/><path class="cls-1" d="M959.43,378.87c5.1.35,10.23.38,15.25.36s10-.17,14.9-.49a216.89,216.89,0,0,0,28.69-3.51,238.84,238.84,0,0,0,27.17-7,120.13,120.13,0,0,0,13-5.14,79.8,79.8,0,0,0,12.18-7.08,104.45,104.45,0,0,0,20.78-19.54,116,116,0,0,0,15.48-24.62c8.41-17.75,12.44-37.8,12.24-58.1a1,1,0,0,1,2-.18,129.07,129.07,0,0,1-4.86,62,125.62,125.62,0,0,1-14,28.83,120.41,120.41,0,0,1-21.65,24.33,122.14,122.14,0,0,1-27.76,18.07,93,93,0,0,1-32,8.11,114.62,114.62,0,0,1-32.4-2.24A106.32,106.32,0,0,1,973,388.1c-2.5-1-5-2-7.36-3.23a46.49,46.49,0,0,1-7-4.15,1,1,0,0,1,.68-1.86Z"/><path class="cls-1" d="M968.58,379.53a287.24,287.24,0,0,0-16.07-25.08,166.1,166.1,0,0,0-18.28-21.37,180.17,180.17,0,0,0-20.85-17.55,87.62,87.62,0,0,0-24.53-12.63A104.16,104.16,0,0,0,861.12,298a116.23,116.23,0,0,0-28.63,2.13,133.32,133.32,0,0,0-53.43,24,1,1,0,0,1-1.32-1.51A129.76,129.76,0,0,1,830,290.42a128,128,0,0,1,31.09-5.75,119.15,119.15,0,0,1,32,2.79,122.23,122.23,0,0,1,30.72,11.21,85.19,85.19,0,0,1,13.74,9.25,83.78,83.78,0,0,1,11.59,11.78A99,99,0,0,1,965,347.89a95.83,95.83,0,0,1,4.23,15.38,72.15,72.15,0,0,1,1.26,15.79,1,1,0,0,1-1.94.47Z"/><path class="cls-1" d="M1019.74,708.15c-3.64-4-7-8.19-10.26-12.48s-6.33-8.66-9.27-13.13a286.34,286.34,0,0,1-16.14-27.75,304.41,304.41,0,0,1-13.17-29.37,311,311,0,0,1-10.11-30.68,247.55,247.55,0,0,1-6.4-31.75,285,285,0,0,1-2.24-32.38c-.17-10.83.06-21.64.57-32.4l.38-8.06c.13-2.69.24-5.36.41-8,.3-5.34.68-10.63,1.09-15.87,1.72-21,3.77-40.82,3.66-60.8,0-10-.42-20-1.15-30.06-.18-2.51-.31-5-.52-7.55l-.71-7.53-.37-3.78-.46-3.76-.93-7.53c-5.38-40.17-16.64-79.81-32.35-118a2,2,0,0,1,3.57-1.8A432.1,432.1,0,0,1,974,341.34l1.85,7.74.93,3.88.82,3.89,1.64,7.81c.51,2.61,1,5.24,1.43,7.86,1,5.23,1.69,10.52,2.39,15.82.31,2.65.65,5.3.93,8l.77,8c.88,10.7,1.24,21.46,1.3,32.07s-.22,21.07-.3,31.25,0,20.18.7,30.11c.43,5,.93,9.92,1.53,14.86s1.36,9.85,2.14,14.75c1.59,9.8,3.45,19.53,5.2,29.26s3.51,19.45,5.21,29.23,3.43,19.61,5.31,29.47,3.85,19.75,5.82,29.75l6.09,30.22c.27,1.26.49,2.55.74,3.83l.77,3.84,1.45,7.73.72,3.9c.22,1.31.43,2.62.68,3.92.44,2.62.9,5.25,1.24,7.94v0a2.09,2.09,0,0,1-1.82,2.33A2.13,2.13,0,0,1,1019.74,708.15Z"/><path class="cls-2" d="M1047.87,108.79l-40.24,13.64a30.1,30.1,0,0,0-20.34,30.85l3.46,35.34,34.54-8.25a30.08,30.08,0,0,0,22.54-29.11Z"/><path class="cls-3" d="M1060.44,143l40.39,13.22a30.09,30.09,0,0,0,34.78-12.49l18.44-30.35-32.6-14.12a30.09,30.09,0,0,0-35.5,9.77Z"/><path class="cls-4" d="M1056.94,173.43l-.52,47.79a33.83,33.83,0,0,0,25.15,33.07l38.79,9.51,4.12-39.73A33.84,33.84,0,0,0,1102,189.3Z"/><path class="cls-5" d="M924.26,227.87l31.07-43.37a37.77,37.77,0,0,0-1.82-46.35l-29.38-33.53-29.21,33.69a37.77,37.77,0,0,0-1.71,46.2Z"/><path class="cls-6" d="M877.52,178.26,848.84,140a33.84,33.84,0,0,0-40.1-10.93l-36.56,16.07,20.92,34a33.84,33.84,0,0,0,39,13.9Z"/><path class="cls-2" d="M1140.15,424.81l-6-17.78a13.28,13.28,0,0,0-13.63-9l-15.61,1.52,3.64,15.27a13.31,13.31,0,0,0,12.87,10Z"/><path class="cls-3" d="M996.29,256.67l-18.7,57.14A42.57,42.57,0,0,0,995.26,363l42.93,26.08,20-46.11a42.57,42.57,0,0,0-13.82-50.22Z"/><path class="cls-4" d="M920.72,438.8l-21.37-.24a15.15,15.15,0,0,0-14.79,11.25l-4.25,17.35L898.08,469A15.14,15.14,0,0,0,913.63,459Z"/><path class="cls-5" d="M890.47,376.42l26,18.61a22.62,22.62,0,0,0,27.76-1.09l20.09-17.6-20.18-17.49a22.63,22.63,0,0,0-27.67-1Z"/><path class="cls-6" d="M984.42,504.23l28.05-21a24.83,24.83,0,0,0,8-29.43l-11.79-26.83-25,15.35a24.85,24.85,0,0,0-10.2,28.63Z"/><path class="cls-2" d="M737.08,287.22l-34.43,11.67a25.74,25.74,0,0,0-17.39,26.39l3,30.23,29.56-7.06a25.74,25.74,0,0,0,19.28-24.89Z"/><path class="cls-3" d="M665.17,239.22l35.6,11.65a26.51,26.51,0,0,0,30.65-11l16.26-26.75-28.74-12.45a26.52,26.52,0,0,0-31.29,8.61Z"/><path class="cls-4" d="M830.05,394.87l-.12,11.38a8.06,8.06,0,0,0,6,7.88l9.24,2.27,1-9.47a8.06,8.06,0,0,0-5.35-8.28Z"/><path class="cls-5" d="M778.44,359.8,787.62,347a11.16,11.16,0,0,0-.54-13.69l-8.68-9.9-8.62,10a11.14,11.14,0,0,0-.51,13.64Z"/><path class="cls-7" d="M912.23,303.48,872.87,251a46.47,46.47,0,0,0-55-15l-50.18,22.06,28.71,46.71a46.46,46.46,0,0,0,53.54,19.08Z"/></g></svg>