<svg xmlns="http://www.w3.org/2000/svg" viewBox="0 0 1027.88 611.8"><defs><style>.cls-1{fill:#736357;}.cls-2{fill:#00b8a9;}.cls-3{fill:#ffde7d;}.cls-4{fill:#2d4059;}.cls-5{fill:#22b573;}.cls-6{fill:#ffb400;}.cls-7{fill:#00adb5;}</style></defs><g id="Layer_2" data-name="Layer 2"><g id="Layer_1-2" data-name="Layer 1"><path class="cls-1" d="M191.7,283.68a47.25,47.25,0,0,1-7,4.15c-2.4,1.2-4.86,2.26-7.36,3.23A105,105,0,0,1,162,295.62a114.28,114.28,0,0,1-32.4,2.25,92.92,92.92,0,0,1-32-8.11,122.14,122.14,0,0,1-27.76-18.07,120.11,120.11,0,0,1-21.65-24.33,126.07,126.07,0,0,1-14-28.83,129.31,129.31,0,0,1-4.86-62,1,1,0,0,1,2,.18C31,177,35.07,197,43.48,214.8A116,116,0,0,0,59,239.42,105.29,105.29,0,0,0,79.73,259,80.73,80.73,0,0,0,91.92,266a117.28,117.28,0,0,0,13,5.13,236.63,236.63,0,0,0,27.16,7,217.1,217.1,0,0,0,28.69,3.51c4.92.32,9.88.44,14.91.49s10.15,0,15.25-.36H191a1,1,0,0,1,1.1,1A1.06,1.06,0,0,1,191.7,283.68Z"/><path class="cls-1" d="M179.85,282a72.11,72.11,0,0,1,1.27-15.79,94.8,94.8,0,0,1,4.23-15.38,99,99,0,0,1,15.94-28.19,83.78,83.78,0,0,1,11.59-11.78,84.75,84.75,0,0,1,13.74-9.25,122.65,122.65,0,0,1,30.72-11.22,119.55,119.55,0,0,1,32-2.78,128,128,0,0,1,31.09,5.75,129.55,129.55,0,0,1,52.22,32.22,1,1,0,0,1-1.31,1.51,133.36,133.36,0,0,0-53.44-24.05,116.12,116.12,0,0,0-28.62-2.13,104.16,104.16,0,0,0-27.73,4.93A87.62,87.62,0,0,0,237,218.49,179.34,179.34,0,0,0,216.15,236a164.65,164.65,0,0,0-18.28,21.37,284.92,284.92,0,0,0-16.07,25.08,1,1,0,0,1-1.43.38A1.06,1.06,0,0,1,179.85,282Z"/><path class="cls-1" d="M127,609.4c.33-2.69.79-5.32,1.24-7.94.24-1.3.46-2.61.68-3.92l.71-3.9,1.46-7.73.77-3.84c.25-1.28.47-2.57.73-3.83l6.1-30.23c2-10,3.95-19.88,5.82-29.74s3.6-19.69,5.3-29.47,3.43-19.51,5.21-29.24,3.62-19.45,5.21-29.25q1.17-7.35,2.14-14.75t1.52-14.86c.73-9.93.77-19.92.7-30.11s-.35-20.63-.3-31.25.43-21.38,1.31-32.07l.76-8c.29-2.67.63-5.32.94-8,.7-5.29,1.4-10.58,2.39-15.82.47-2.62.91-5.24,1.43-7.85l1.63-7.81.83-3.9.92-3.87,1.86-7.74a432.3,432.3,0,0,1,48.66-116,2,2,0,0,1,3.57,1.81c-15.71,38.23-27,77.87-32.35,118l-.93,7.53-.47,3.76-.36,3.77-.71,7.54c-.22,2.51-.34,5-.52,7.55-.73,10-1.19,20.07-1.15,30.06-.11,20,1.94,39.78,3.65,60.8.42,5.24.8,10.53,1.1,15.87.17,2.66.28,5.34.4,8l.39,8.06c.51,10.76.73,21.57.57,32.39A287.3,287.3,0,0,1,196,466a247.9,247.9,0,0,1-6.4,31.75,308.4,308.4,0,0,1-10.12,30.68,300.66,300.66,0,0,1-13.17,29.37,283,283,0,0,1-16.14,27.74c-2.93,4.48-6,8.86-9.26,13.14s-6.63,8.46-10.27,12.48a2.09,2.09,0,0,1-3.62-1.65Z"/><path class="cls-2" d="M102.52,23.13a8.15,8.15,0,0,1,10.77-7.73l29.46,10a30.08,30.08,0,0,1,20.33,30.85l-2.54,26a8.16,8.16,0,0,1-10,7.14l-25.44-6.08a30.09,30.09,0,0,1-22.55-29.11Z"/><path class="cls-3" d="M83.1,36.9a8.14,8.14,0,0,1-4,12.64L49.55,59.22A30.08,30.08,0,0,1,14.77,46.73L1.19,24.37A8.15,8.15,0,0,1,4.91,12.66l24-10.4A30.09,30.09,0,0,1,64.43,12Z"/><path class="cls-4" d="M80.52,71.17a8.16,8.16,0,0,1,10.86,7.6l.39,36.4a33.85,33.85,0,0,1-25.15,33.08l-29.7,7.28a8.15,8.15,0,0,1-10-7.08L23.72,118A33.83,33.83,0,0,1,46.2,83.26Z"/><path class="cls-5" d="M232.75,121.57a8.15,8.15,0,0,1-13.26,0L201.38,104.3c-15-18-17-53,3-75l15.71-14.69a8.16,8.16,0,0,1,12.29,0l14,12.66c19,21,22,47,2,77Z"/><path class="cls-6" d="M283.68,84.75a8.15,8.15,0,0,1-4-12.64L301.54,43a33.83,33.83,0,0,1,40.09-10.93l28,12.3A8.16,8.16,0,0,1,373.3,56.1l-16,26.06a33.84,33.84,0,0,1-39,13.9Z"/><path class="cls-2" d="M21.6,327.76A8.15,8.15,0,0,1,13.88,317l2.37-7a13.31,13.31,0,0,1,13.63-9l6.31.62a8.15,8.15,0,0,1,7.13,10l-1.47,6.16a13.28,13.28,0,0,1-12.86,10Z"/><path class="cls-3" d="M145,166.47a8.15,8.15,0,0,1,11.41,1.61,8,8,0,0,1,1.42,3.52l8.56,54.7c6.05,18.51,8.45,16.57-8,27l-38.2,33.89a8.16,8.16,0,0,1-11.72-3.73L95.38,231.3c-7.37-17.94-3.51-15.36,12-27Z"/><path class="cls-4" d="M233.43,352.49a8.16,8.16,0,0,1,7.6-10.86l10-.11a15.15,15.15,0,0,1,14.8,11.25l2,8.26a8.15,8.15,0,0,1-7.07,10.05l-8.47.88a15.13,15.13,0,0,1-15.55-10Z"/><path class="cls-5" d="M250.66,272.75a8.16,8.16,0,0,1,0,13.26l-16.72,12a22.64,22.64,0,0,1-27.77-1.09l-13-11.44a8.15,8.15,0,0,1,0-12.29l13.11-11.36a22.62,22.62,0,0,1,27.67-1Z"/><path class="cls-6" d="M169.5,396.38a8.16,8.16,0,0,1-12.64,4l-19-14.22a24.83,24.83,0,0,1-8-29.42l8-18.27a8.16,8.16,0,0,1,11.74-3.67l17,10.46a24.83,24.83,0,0,1,10.21,28.62Z"/><path class="cls-2" d="M413.31,201.56a8.15,8.15,0,0,1,10.77-7.73l23.64,8a25.74,25.74,0,0,1,17.4,26.39l-2.05,20.92a8.14,8.14,0,0,1-10,7.14l-20.46-4.89a25.74,25.74,0,0,1-19.29-24.9Z"/><path class="cls-3" d="M478.37,133.08a8.15,8.15,0,0,1-4,12.64l-24.78,8.11a26.54,26.54,0,0,1-30.66-11l-11.39-18.76a8.15,8.15,0,0,1,3.72-11.71l20.15-8.73a26.52,26.52,0,0,1,31.29,8.61Z"/><path class="cls-4" d="M309.59,301.61a8.15,8.15,0,0,1,10.86,7.6h0a8.06,8.06,0,0,1-6,7.88l-.16,0a8.15,8.15,0,0,1-10.05-7.08l0-.16a8.06,8.06,0,0,1,5.36-8.28Z"/><path class="cls-5" d="M378.56,253.5a8.15,8.15,0,0,1-13.25,0L362.76,250a11.16,11.16,0,0,1,.54-13.69l2.51-2.87a8.16,8.16,0,0,1,12.29,0l2.5,2.89a11.14,11.14,0,0,1,.5,13.64Z"/><path class="cls-7" d="M249,210a8.15,8.15,0,0,1-4-12.64L277.51,154a46.46,46.46,0,0,1,55-15l41.62,18.3A8.15,8.15,0,0,1,377.83,169L354,207.73a46.44,46.44,0,0,1-53.53,19.08Z"/><path class="cls-1" d="M836.93,281.83c5.1.34,10.23.38,15.25.36s10-.17,14.91-.49a217.1,217.1,0,0,0,28.69-3.51,236.63,236.63,0,0,0,27.16-7A116.51,116.51,0,0,0,936,266,80.73,80.73,0,0,0,948.15,259a105.29,105.29,0,0,0,20.78-19.54A116,116,0,0,0,984.4,214.8c8.41-17.76,12.45-37.8,12.25-58.1a1,1,0,0,1,2-.18,129.19,129.19,0,0,1-4.86,62,126.07,126.07,0,0,1-14,28.83,120.11,120.11,0,0,1-21.65,24.33,121.92,121.92,0,0,1-27.76,18.07,92.92,92.92,0,0,1-32,8.11,114.28,114.28,0,0,1-32.4-2.25,105,105,0,0,1-15.42-4.56c-2.5-1-5-2-7.36-3.23a47.25,47.25,0,0,1-7-4.15,1,1,0,0,1-.22-1.44,1.05,1.05,0,0,1,.9-.42Z"/><path class="cls-1" d="M846.09,282.49A287.29,287.29,0,0,0,830,257.41,164.65,164.65,0,0,0,811.73,236a178.51,178.51,0,0,0-20.85-17.55,87.62,87.62,0,0,0-24.53-12.63,104.16,104.16,0,0,0-27.72-4.93A116.16,116.16,0,0,0,710,203.06a133.36,133.36,0,0,0-53.44,24.05,1,1,0,0,1-1.31-1.51,129.55,129.55,0,0,1,52.22-32.22,128,128,0,0,1,31.09-5.75,119.55,119.55,0,0,1,32,2.78,122.65,122.65,0,0,1,30.72,11.22A84.75,84.75,0,0,1,815,210.88a83.23,83.23,0,0,1,11.59,11.78,98.76,98.76,0,0,1,15.94,28.19,94.8,94.8,0,0,1,4.23,15.38A72.11,72.11,0,0,1,848,282a1,1,0,0,1-1.09,1A1,1,0,0,1,846.09,282.49Z"/><path class="cls-1" d="M897.25,611.11c-3.64-4-7-8.2-10.26-12.48s-6.34-8.66-9.27-13.14a285,285,0,0,1-16.14-27.74,300.66,300.66,0,0,1-13.17-29.37,311,311,0,0,1-10.12-30.68,247.9,247.9,0,0,1-6.4-31.75,287.3,287.3,0,0,1-2.24-32.39c-.16-10.82.06-21.63.57-32.39l.39-8.06c.12-2.69.23-5.37.4-8,.3-5.34.68-10.63,1.1-15.87,1.71-21,3.76-40.82,3.65-60.8,0-10-.42-20-1.14-30.06-.18-2.51-.31-5-.52-7.55l-.72-7.54-.36-3.77-.46-3.76-.93-7.53c-5.38-40.17-16.65-79.81-32.36-118a2,2,0,0,1,3.57-1.81,432,432,0,0,1,48.66,116l1.86,7.74.92,3.87.83,3.9,1.63,7.81c.52,2.61,1,5.23,1.44,7.85,1,5.24,1.68,10.53,2.39,15.82.31,2.66.65,5.31.93,8l.77,8c.87,10.69,1.24,21.46,1.3,32.07s-.23,21.07-.3,31.25,0,20.18.7,30.11q.63,7.46,1.52,14.86t2.14,14.75c1.59,9.8,3.46,19.53,5.21,29.25s3.5,19.46,5.21,29.24,3.43,19.61,5.31,29.47S887.2,538,889.18,548l6.09,30.23c.27,1.26.48,2.55.73,3.83l.77,3.84,1.46,7.73.71,3.9c.22,1.31.44,2.62.68,3.92.45,2.62.91,5.25,1.25,7.94v.05a2.09,2.09,0,0,1-3.62,1.66Z"/><path class="cls-2" d="M925.36,23.13a8.15,8.15,0,0,0-10.77-7.73l-29.46,10A30.08,30.08,0,0,0,864.8,56.24l2.54,26a8.16,8.16,0,0,0,10,7.14l25.45-6.08a30.09,30.09,0,0,0,22.54-29.11Z"/><path class="cls-3" d="M944.78,36.9a8.15,8.15,0,0,0,4,12.64l29.57,9.68a30.08,30.08,0,0,0,34.78-12.49l13.58-22.36A8.15,8.15,0,0,0,1023,12.66L999,2.26A30.09,30.09,0,0,0,963.45,12Z"/><path class="cls-4" d="M947.36,71.17a8.16,8.16,0,0,0-10.86,7.6l-.39,36.4a33.85,33.85,0,0,0,25.15,33.08l29.7,7.28a8.15,8.15,0,0,0,10-7.08l3.16-30.42a33.86,33.86,0,0,0-22.48-34.77Z"/><path class="cls-5" d="M795.14,121.57a8.14,8.14,0,0,0,13.25,0L826.5,104.3c15-18,17-53-3-75L807.79,14.61a8.16,8.16,0,0,0-12.29,0l-14,12.66c-19,21-22,47-2,77Z"/><path class="cls-6" d="M744.2,84.75a8.15,8.15,0,0,0,4-12.64L726.34,43a33.83,33.83,0,0,0-40.09-10.93l-28,12.3a8.16,8.16,0,0,0-3.67,11.74l16,26.06a33.84,33.84,0,0,0,39,13.9Z"/><path class="cls-2" d="M1006.28,327.76A8.15,8.15,0,0,0,1014,317l-2.37-7A13.31,13.31,0,0,0,998,301l-6.31.62a8.15,8.15,0,0,0-7.13,10l1.47,6.16a13.28,13.28,0,0,0,12.86,10Z"/><path class="cls-3" d="M882.9,166.47a8.16,8.16,0,0,0-11.42,1.61,8,8,0,0,0-1.42,3.52l-8.56,54.7c-6,18.51-8.45,16.57,8,27l38.2,33.89a8.16,8.16,0,0,0,11.72-3.73L932.5,231.3c7.37-17.94,3.51-15.36-12-27Z"/><path class="cls-4" d="M794.45,352.49a8.16,8.16,0,0,0-7.6-10.86l-10-.11a15.15,15.15,0,0,0-14.8,11.25L760,361a8.15,8.15,0,0,0,7.08,10.05l8.46.88a15.13,15.13,0,0,0,15.55-10Z"/><path class="cls-5" d="M777.23,272.75a8.15,8.15,0,0,0,0,13.26l16.72,12a22.64,22.64,0,0,0,27.77-1.09l13-11.44a8.15,8.15,0,0,0,0-12.29l-13.11-11.36a22.62,22.62,0,0,0-27.67-1Z"/><path class="cls-6" d="M858.38,396.38a8.16,8.16,0,0,0,12.64,4l19-14.22a24.83,24.83,0,0,0,8-29.42l-8-18.27a8.15,8.15,0,0,0-11.73-3.67l-17,10.46A24.81,24.81,0,0,0,851,373.86Z"/><path class="cls-2" d="M614.58,201.56a8.16,8.16,0,0,0-10.77-7.73l-23.65,8a25.75,25.75,0,0,0-17.4,26.39l2,20.92a8.15,8.15,0,0,0,10,7.14l20.46-4.89a25.74,25.74,0,0,0,19.29-24.9Z"/><path class="cls-3" d="M549.51,133.08a8.15,8.15,0,0,0,4,12.64l24.78,8.11a26.54,26.54,0,0,0,30.66-11l11.39-18.76a8.15,8.15,0,0,0-3.72-11.71l-20.15-8.73a26.52,26.52,0,0,0-31.29,8.61Z"/><path class="cls-4" d="M718.29,301.61a8.15,8.15,0,0,0-10.86,7.6h0a8.06,8.06,0,0,0,6,7.88l.15,0a8.15,8.15,0,0,0,10-7.08l0-.16a8.05,8.05,0,0,0-5.36-8.28Z"/><path class="cls-5" d="M649.32,253.5a8.15,8.15,0,0,0,13.25,0l2.55-3.55a11.16,11.16,0,0,0-.54-13.69l-2.51-2.87a8.16,8.16,0,0,0-12.29,0l-2.5,2.89a11.16,11.16,0,0,0-.5,13.64Z"/><path class="cls-7" d="M778.92,210a8.15,8.15,0,0,0,4-12.64L750.37,154a46.46,46.46,0,0,0-55-15l-41.62,18.3A8.15,8.15,0,0,0,650.05,169l23.82,38.74a46.45,46.45,0,0,0,53.53,19.08Z"/></g></g></svg>