<svg xmlns="http://www.w3.org/2000/svg" viewBox="0 0 545.31 372.12"><defs><style>.cls-1{fill:#5a6161;}.cls-2{fill:#c7d64f;}.cls-2,.cls-3,.cls-4,.cls-5,.cls-6{fill-rule:evenodd;}.cls-3{fill:#fbba00;}.cls-4{fill:#7073ab;}.cls-5{fill:#c54793;}.cls-6{fill:#94bce5;}</style></defs><g id="Layer_2" data-name="Layer 2"><g id="Layer_1-2" data-name="Layer 1"><path class="cls-1" d="M0,358.43V324.94a2.19,2.19,0,0,1,2.19-2.18H23c1.15,0,1.78.57,1.78,1.61v.34c0,1.1-.63,1.62-1.78,1.62H3.91v14H18.35c1.15,0,1.78.58,1.78,1.61v.23c0,1.1-.63,1.61-1.78,1.61H3.91v14.62c0,1.2-.57,1.78-1.72,1.78H1.67C.58,360.21,0,359.63,0,358.43Z"/><path class="cls-1" d="M31.23,358.43V321.21c0-.12.58-.41,1.27-.41,1.27,0,2.47.64,2.47,3.63v34c0,1.38-.69,1.78-1.66,1.78H32.9C31.92,360.21,31.23,359.81,31.23,358.43Z"/><path class="cls-1" d="M42.57,346.23c0-8.28,5.92-14.32,14.15-14.32S70.81,338,70.81,346.34s-5.92,14.33-14.09,14.33S42.57,354.57,42.57,346.23Zm24.44.11c0-6.38-4.37-11.16-10.29-11.16s-10.36,4.66-10.36,11.05,4.43,11.16,10.36,11.16S67,352.73,67,346.34Z"/><path class="cls-1" d="M98.13,356.58v-.86a10.86,10.86,0,0,1-9.32,4.95c-7.24,0-10.87-4.83-10.87-12.08V334.15c0-1.38.69-1.78,1.67-1.78H80c1,0,1.67.4,1.67,1.78v14.21c0,5.52,2.76,8.8,7.65,8.8a9.58,9.58,0,0,0,8.75-5.81v-17.2c0-1.38.69-1.78,1.66-1.78h.41c1,0,1.67.4,1.67,1.78v25.66a1.73,1.73,0,0,1-1.27.4C99.28,360.21,98.13,359.58,98.13,356.58Z"/><path class="cls-1" d="M114.64,337.6c1.15-3.74,3.57-5.69,7.25-5.69,2.53,0,4,1,4,2.81,0,1.39-.92,2.08-1,2a4.73,4.73,0,0,0-3.33-1.15c-4.89,0-6.79,5.12-6.79,12.14v10.76c0,1.38-.69,1.78-1.67,1.78h-.4c-1,0-1.67-.4-1.67-1.78V332.77c0-.12.58-.4,1.27-.4,1.26,0,2.41.63,2.41,3.62Z"/><path class="cls-1" d="M131.55,323.28a2.22,2.22,0,0,1,2.53-2.48,2.16,2.16,0,0,1,2.42,2.48,2.48,2.48,0,0,1-4.95,0Zm.58,35.15V334.15c0-1.38.69-1.78,1.67-1.78h.4c1,0,1.67.4,1.67,1.78v24.28c0,1.38-.69,1.78-1.67,1.78h-.4C132.82,360.21,132.13,359.81,132.13,358.43Z"/><path class="cls-1" d="M143.23,355.09a2.25,2.25,0,0,1,2-2c1.84,2.54,4.84,4.43,9.38,4.43s7.08-1.84,7.08-4.6c0-3.28-2.88-4-8.06-5.06-4.25-.92-9.6-2.13-9.6-7.65,0-4.89,4.14-8.28,10.47-8.28,6.67,0,10.12,3.16,10.12,5.23,0,1.44-2,2.13-2.07,2a9.29,9.29,0,0,0-8.05-4c-4.49,0-6.91,1.9-6.91,4.6,0,2.94,2.59,3.74,7.65,4.83,4.43,1,10.07,2.19,10.07,7.83,0,5.06-4.14,8.34-10.81,8.34C147.2,360.67,143.23,357.16,143.23,355.09Z"/><path class="cls-1" d="M176.59,337a10.62,10.62,0,0,1,9.27-5.06c7.24,0,10.87,4.83,10.87,12.08v14.44c0,1.38-.69,1.78-1.67,1.78h-.4c-1,0-1.67-.4-1.67-1.78V344.22c0-5.53-2.76-8.81-7.36-8.81-5.41,0-9,3.69-9,9.38v13.64c0,1.38-.69,1.78-1.66,1.78h-.41c-1,0-1.67-.4-1.67-1.78V321.21c0-.12.58-.41,1.27-.41,1.27,0,2.47.64,2.47,3.63Z"/><path class="cls-1" d="M205.35,323.28a2.22,2.22,0,0,1,2.54-2.48c1.61,0,2.41.81,2.41,2.48a2.48,2.48,0,0,1-5,0Zm.58,35.15V334.15c0-1.38.69-1.78,1.67-1.78h.4c1,0,1.67.4,1.67,1.78v24.28c0,1.38-.69,1.78-1.67,1.78h-.4C206.62,360.21,205.93,359.81,205.93,358.43Z"/><path class="cls-1" d="M222.78,336.91a10.77,10.77,0,0,1,9.32-5c7.25,0,10.88,4.83,10.88,12.08v14.44c0,1.38-.69,1.78-1.67,1.78h-.41c-1,0-1.66-.4-1.66-1.78V344.22c0-5.47-2.71-8.81-7.37-8.81a9.68,9.68,0,0,0-9,5.82v17.2c0,1.38-.69,1.78-1.67,1.78h-.4c-1,0-1.67-.4-1.67-1.78V332.77c0-.12.58-.4,1.27-.4,1.26,0,2.41.63,2.41,3.62Z"/><path class="cls-1" d="M248.09,364.64c0-4.14,3.86-6.91,8.86-7.88a3.24,3.24,0,0,1-1.2-2.65,4.13,4.13,0,0,1,1.2-2.7,9.69,9.69,0,0,1-6.84-9.15c0-5.7,4.71-10.35,11.1-10.35a12.13,12.13,0,0,1,6.9,2.12l1.9-3c.81-1.15,1.44-1.72,2.65-1.72a2.19,2.19,0,0,1,2.13,1.67L270.24,336a9.55,9.55,0,0,1,2.24,6c0,5.64-4.83,10.07-11.27,10.07a12,12,0,0,1-1.5-.06,2.27,2.27,0,0,0-.4,1.38c0,1.9,2.59,2.07,7.59,3.34,3.92,1,8.06,2.82,8.06,7.19,0,5.12-5.18,8.17-14,8.17S248.09,369.7,248.09,364.64Zm13.58-5.7c-5.23.29-10,2.25-10,5.7,0,2.87,3.22,4.43,9.37,4.43s10.13-1.79,10.13-5S266,360,261.67,358.94Zm7-16.79c0-4.15-3-7.14-7.48-7.14a6.86,6.86,0,0,0-7.25,7.14c0,4.14,3,7,7.37,7S268.63,346.29,268.63,342.15Z"/><path class="cls-1" d="M292.21,357.79V324.94a2.19,2.19,0,0,1,2.19-2.18h22.26c1.15,0,1.79.57,1.79,1.61v.34c0,1.1-.64,1.62-1.79,1.62H296.13v12.82h16.45c1.15,0,1.78.58,1.78,1.61V341c0,1.1-.63,1.62-1.78,1.62H296.13v13.8H317c1.15,0,1.78.52,1.78,1.55v.35A1.55,1.55,0,0,1,317,360H294.4A2.19,2.19,0,0,1,292.21,357.79Z"/><path class="cls-1" d="M322.93,346.34c0-8.62,5.58-14.43,13.17-14.43,4.84,0,8.35,2.3,10,4.83V321.21c0-.12.57-.41,1.26-.41,1.27,0,2.48.64,2.48,3.63v34c0,1.38-.7,1.78-1.67,1.78h-.41c-1,0-1.61-.4-1.61-1.78v-3a12,12,0,0,1-10.24,5.24C328.63,360.67,322.93,355,322.93,346.34Zm23.18,2.25v-7a10,10,0,0,0-9.72-6.45c-5.81,0-9.66,4.49-9.66,11.11,0,6.44,4,11.1,9.55,11.1C341.28,357.39,345.88,353.65,346.11,348.59Z"/><path class="cls-1" d="M378.9,356.58v-.86a10.87,10.87,0,0,1-9.32,4.95c-7.25,0-10.87-4.83-10.87-12.08V334.15c0-1.38.69-1.78,1.67-1.78h.4c1,0,1.67.4,1.67,1.78v14.21c0,5.52,2.76,8.8,7.65,8.8a9.57,9.57,0,0,0,8.74-5.81v-17.2c0-1.38.69-1.78,1.67-1.78h.4c1,0,1.67.4,1.67,1.78v25.66a1.7,1.7,0,0,1-1.26.4C380.05,360.21,378.9,359.58,378.9,356.58Z"/><path class="cls-1" d="M389.89,346.23c0-8.28,6-14.32,14.09-14.32s11.79,5.11,11.79,7.59c0,1.67-2.36,2-2.47,1.78-1.44-3.39-4.09-6-9.32-6-5.87,0-10.3,4.6-10.3,11s4.37,11.1,10.3,11.1c5.23,0,7.88-2.64,9.32-6,.11-.23,2.47.12,2.47,1.78,0,2.48-3.79,7.6-11.79,7.6S389.89,354.57,389.89,346.23Z"/><path class="cls-1" d="M421.24,353c0-6.39,6.38-9,19-9.32h.57v-1c0-4.71-2.76-7.3-7.71-7.3a9.37,9.37,0,0,0-8.74,5.06,2.2,2.2,0,0,1-2.13-2.19c0-2,3.91-6.32,11.16-6.32,7,0,11.1,4,11.1,10.64v17.26a1.7,1.7,0,0,1-1.26.4c-1.27,0-2.36-.63-2.36-3.63v-1a12.15,12.15,0,0,1-10.24,5.06C424.69,360.61,421.24,357.56,421.24,353Zm19.61-3.85v-2.54l-1.61.06c-9.38.35-14.21,2-14.21,6.33,0,2.76,2.25,4.54,6,4.54C436.65,357.5,440.85,354,440.85,349.11Z"/><path class="cls-1" d="M450.28,334.44v-.35c0-1,.41-1.49,1.79-1.49h2.53v-4.78c0-1.38.69-1.78,1.67-1.78h.4c1,0,1.61.4,1.61,1.78v4.78h7.31c1.38,0,1.78.51,1.78,1.49v.35c0,1-.4,1.49-1.78,1.49h-7.31v15.59c0,4,1,5.93,4.08,5.93a5.25,5.25,0,0,0,4.26-2c.12-.11,1.27.41,1.27,1.84s-2,3.4-5.64,3.4c-5.35,0-7.65-3.05-7.65-8.75v-16h-2.53C450.69,335.93,450.28,335.41,450.28,334.44Z"/><path class="cls-1" d="M473.93,323.28a2.21,2.21,0,0,1,2.53-2.48c1.61,0,2.41.81,2.41,2.48a2.47,2.47,0,1,1-4.94,0Zm.57,35.15V334.15c0-1.38.69-1.78,1.67-1.78h.4c1,0,1.67.4,1.67,1.78v24.28c0,1.38-.69,1.78-1.67,1.78h-.4C475.19,360.21,474.5,359.81,474.5,358.43Z"/><path class="cls-1" d="M485.83,346.23c0-8.28,5.93-14.32,14.15-14.32s14.1,6.09,14.1,14.43-5.93,14.33-14.1,14.33S485.83,354.57,485.83,346.23Zm24.45.11c0-6.38-4.37-11.16-10.3-11.16s-10.35,4.66-10.35,11.05,4.43,11.16,10.35,11.16S510.28,352.73,510.28,346.34Z"/><path class="cls-1" d="M525.12,336.91a10.76,10.76,0,0,1,9.32-5c7.25,0,10.87,4.83,10.87,12.08v14.44c0,1.38-.69,1.78-1.67,1.78h-.4c-1,0-1.67-.4-1.67-1.78V344.22c0-5.47-2.7-8.81-7.36-8.81a9.67,9.67,0,0,0-9,5.82v17.2c0,1.38-.69,1.78-1.67,1.78h-.4c-1,0-1.67-.4-1.67-1.78V332.77c0-.12.57-.4,1.26-.4,1.27,0,2.42.63,2.42,3.62Z"/><path class="cls-2" d="M257.61,220.11a4.76,4.76,0,0,0,.26-.89c.24-2.23.38-4.48.69-6.7a36,36,0,0,0-.59-11,20.68,20.68,0,0,0-5.47-10.7c-3-3.2-6.08-6.28-8.19-10.17a30.18,30.18,0,0,1-3.3-8.7q-1-5.2-2-10.43a13.82,13.82,0,0,1,0-2.23l.41,0a18.11,18.11,0,0,1,.89,2.53,44.65,44.65,0,0,0,4.45,11.77c1.47,2.87,3.07,5.77,5.73,7.83,1.76,1.37,3.37,3,5.32,4,3.54,1.81,7.3,3.2,10.94,4.83,1.11.5,2.11,1.24,3.2,1.78a1.29,1.29,0,0,0,1.14-.06c2.15-2.26,5-3.24,7.76-4.4a67.33,67.33,0,0,0,7.56-3.76c2.08-1.18,4-2.65,5.95-4,3.18-2.26,5.54-5.33,8.08-8.22s4.23-6.2,6.09-9.47a11.43,11.43,0,0,0,.56-1.34h.41a3.83,3.83,0,0,1,.07,1.38c-.66,1.94-1.31,3.89-2.15,5.75a54.35,54.35,0,0,1-3.58,7.06c-2.5,3.9-5.27,7.63-7.89,11.46a47.78,47.78,0,0,0-7.71,17,73.09,73.09,0,0,0-1.36,16.56,3.74,3.74,0,0,0,.08.75c0,.16.49,5,.53,5.26.46,3.51.92,7,1.42,10.54.23,1.63.44,3.27.78,4.88,1.22,5.58,2.34,11.2,3.8,16.72,1.58,6,3.48,11.86,5.26,17.77.7,2.31,1.45,4.6,2.15,6.91a1.72,1.72,0,0,1-.07,1.15c-6.21-15.5-12.28-31-20.09-45.8l-.54.06c-.36,1.09-.73,2.17-1.08,3.25,0,.16,0,.36,0,.51-1.56,3.1-.13,6,.71,8.88,1.26,4.43,2.42,8.89,3.7,13.31.79,2.76,1.75,5.46,2.58,8.2s1.63,5.59,2.48,8.37c.48,1.58,1,3.13,1.54,4.69.07.24-15.92-26.54-16.33-28.39-.07-.29-.47-.51-.71-.76-.21.23-.52.45-.59.72-.18.65-6.71,23.32-8.29,29.9l-.4,0c.06-1.39.12-2.78.18-4.15.18-3.69.31-7.38.57-11.06.56-8,1.26-16,1.78-24.09a32.1,32.1,0,0,0-.46-5.51c-.17-1.38-.45-2.74-.69-4.12-.05-.31-.13-.61-.2-.92l-.33-.05c-3.48,8.64-6.75,17.36-10.48,25.89s-7.93,16.9-11.93,25.33l-.57-.13a4.83,4.83,0,0,1,.08-1.27c1.11-3.18,2.31-6.34,3.37-9.54s1.88-6.33,2.84-9.48,1.93-6,2.81-9.07c.8-2.8,1.46-5.64,2.22-8.45.62-2.28,1.31-4.54,2-6.82.3-1,.56-2.12.81-3.19.95-4.2,1.88-8.4,2.82-12.6.67-3,.9-7.42,1.05-7.45m12.54-11.23H270c.11,1.55.14,3.12.38,4.66.08.61.55,1.5,1,1.62,1,.27,1.21-.79,1.34-1.48.44-2.44.68-4.93,1.18-7.36a3.43,3.43,0,0,0-1.5-3.68c-.44-.34-1.19-.91-1.43-.76a3.64,3.64,0,0,0-1.06,1.56,2.07,2.07,0,0,0-.08,1c.08,1.48.18,3,.27,4.43"/><path class="cls-2" d="M267.63,174.65c-.35,1.77-.59,3.56-1.1,5.3a3.37,3.37,0,0,1-3.09,2.45,4.66,4.66,0,0,1-4.14-1.78c-2.91-3.19-4-6.72-3-10.58.3-1.21,2.49-2.63,4.1-2.65,2.82,0,4.12.7,5.34,2.66a10.92,10.92,0,0,1,1.87,4.6"/><path class="cls-2" d="M284.89,171.35a13.59,13.59,0,0,1-2.23,7.23c-1.52,2.5-3.35,2.2-5,.45a13.35,13.35,0,0,1-3.72-8c-.26-2.3,1.82-5.67,3.91-6,3.71-.52,7.34.75,7.08,5.78,0,.17,0,.34,0,.51"/><path class="cls-3" d="M190.35,115.88a1.5,1.5,0,0,1,.69.33c2.16,1.57,4.69,2.37,7.16,3.34a19.77,19.77,0,0,0,8.05,1.33,7.06,7.06,0,0,0,6.53-5.42c1.38-4.87.24-9.45-1.23-14a1,1,0,0,1,.16-.93,14.76,14.76,0,0,1,1.11,2.12c1,2.79,1.91,5.59,2.72,8.42a12.23,12.23,0,0,1,.22,3.15c0,3.82-.21,7.66.09,11.45a85.06,85.06,0,0,0,1.69,9.45c.05.29.23.56.25.85.22,3.45,2,6.5,2.68,9.83.6,2.74,1.57,5.41,2.43,8.1s1.83,5.44,2.69,8.17c1.17,3.74,2.26,7.5,3.43,11.23.87,2.78,1.83,5.53,2.73,8.29.3.93.57,1.86.81,2.8a1.07,1.07,0,0,1-.31.84c-2.45-4.59-3.87-9.57-5.9-14.31s-4-9.44-5.95-14.2-3.79-9.57-5.8-14.65c-.5.48-1.11.78-1.18,1.17-.35,2-2,2.78-3.29,3.87-2.37,2-5.16,2.45-8.28,2.31s-5.62-1.61-8.32-2.8a20.68,20.68,0,0,1-5.54-3.9c-1.21-1.1-2.3-2.32-3.43-3.5-.39-.4-.43-.92-.1-.9a7.84,7.84,0,0,1,1.65,1.08c2.62,1.73,5.18,3.57,7.88,5.16a6.07,6.07,0,0,0,3.74,1.24c1.32-.13,2.69.56,4,.52a9.83,9.83,0,0,0,6.62-2.91,18.57,18.57,0,0,0,3.11-4.87,5.22,5.22,0,0,0,.46-2.82c-.24-2.4-.79-4.72-3-6.12-3.88-2.41-7.83-4.7-11.66-7.19a59.79,59.79,0,0,1-5.28-4.15,14.12,14.12,0,0,1-1.31-1.34,1,1,0,0,1-.42-.63C190.2,115.86,190.35,115.88,190.35,115.88Z"/><path class="cls-3" d="M206,116.88a6.17,6.17,0,0,1-4.15-2.09,2.48,2.48,0,0,1-.33-2.9c1-2.15,2.83-2.65,4.65-1.22a7.28,7.28,0,0,1,2.4,3.82c.41,1.41-.54,2.38-2.57,2.39"/><path class="cls-4" d="M213.29,184.29l.21-.29c6.08,1.73,12.17,3.45,18.25,5.2,2.55.74,17.8,4.1,18.82,3.41-1.46-.47-2.76-.87-4-1.33q-5.88-2.09-11.75-4.24c-2.54-.93-5.07-1.88-7.58-2.88s-5.29-2.07-7.84-3.3c-3.15-1.51-6.22-3.18-9.3-4.84-1.88-1-3.75-2.08-5.54-3.26a16.62,16.62,0,0,1-7.74-11.4,12.7,12.7,0,0,0-1.61-4.24c-.95-1.57-.7-3.09-1.66-5a32.08,32.08,0,0,0-5.94-8.21.67.67,0,0,0-.67-.26c-.43.1-.18.75,0,.9a19.9,19.9,0,0,1,1.38,1.66,27.22,27.22,0,0,1,5.44,11.71,6.42,6.42,0,0,1,.2,2.2c-.54,2.65-1.12,5.3-1.85,7.89a11.51,11.51,0,0,0-.12,6.75A111.11,111.11,0,0,0,198.24,190a13.8,13.8,0,0,0,.88,1.41l.42-.19c-.4-1.25-.84-2.48-1.19-3.74q-1.53-5.68-3-11.39a.92.92,0,0,1,.31-.84,1.12,1.12,0,0,1,.9.22A15.55,15.55,0,0,1,198,176.7c2.73,2.46,5.58,4.79,8.14,7.41,2.77,2.84,5.34,5.89,7.88,8.94,2.77,3.32,5.48,6.68,8.07,10.13s5,7,7.49,10.56c.65.92,1.32,1.84,2,2.75l.45-.29c-5.46-11.09-10.84-22.23-18.75-31.91"/><path class="cls-4" d="M183.7,155.59a1.63,1.63,0,0,1,.67.13c1.33.92,3.13,1.2,3.75,3.11.38,1.21,1.39,2.2,1.8,3.4a2,2,0,0,1-2.5,2.53,9.47,9.47,0,0,1-6.22-5.38c-.84-2,.35-3.87,2.5-3.79"/><path class="cls-2" d="M189.73,116c-.23,0-.37.33-.55.62a24.81,24.81,0,0,1-5.81,6.84c-1.9,1.42-4,3-6.47,1.79A11.58,11.58,0,0,1,173,122a19.34,19.34,0,0,1-3.59-7.9c-.08-.38-.52-.67-.78-1l-.46.21c.27,2.46.5,4.92.85,7.36.25,1.8.71,3.56,1,5.35a71.66,71.66,0,0,1,1,7.41,111.63,111.63,0,0,1,.21,12.93c-.26,4.08-1.22,8.1-1.82,12.17-.18,1.23-.19,2.5-.27,3.76l.44.1q2.76-11.1,5.54-22.18l.54.07c.48,7.39-.29,14.87,1.09,22.22a1.22,1.22,0,0,0,.36-.78c.07-1.69.14-3.39.17-5.08,0-2.81-.23-5.63.07-8.4.48-4.44.67-8.94,2-13.26a31.4,31.4,0,0,1,3.31-7.76c2.22-3.48,6-5.78,7.37-10.09.05-.14.09-.28.13-.43C190.16,116.71,190.1,116,189.73,116Z"/><path class="cls-2" d="M180.85,117.21a7.2,7.2,0,0,1-2,4.74,1,1,0,0,1-1.63.12,6.1,6.1,0,0,1-1.59-7,2.35,2.35,0,0,1,2.34-1.31,2.21,2.21,0,0,1,2.28,1.35,13.56,13.56,0,0,1,.59,2.09"/><path class="cls-5" d="M358.51,143.78a7.45,7.45,0,0,1,1.19.5c1.74,1.13,1.56,3,1.15,4.5-.32,1.14-2.62,2.1-4.14,1.8a27.63,27.63,0,0,1-3.21-.86c-1-.34-1.27-1.17-.87-2.21a6.92,6.92,0,0,1,5.88-3.73"/><path class="cls-5" d="M298.94,201.41l.23.17,36.1-32c.19,1.09.34,1.81.42,2.54a12.09,12.09,0,0,0,5.6,8.81c4.06,2.82,8.76,2.78,13.36,2.07a61.26,61.26,0,0,0,8.79-2.49,13.42,13.42,0,0,0,2.27-1.21c0-.11-.06-.22-.1-.34a7.81,7.81,0,0,0-.95.15c-.48.13-.94.36-1.44.48-4.07,1.08-8.22.9-12.38.73-6-.24-10.84-4.65-10.84-10,0-.85.13-1.7.08-2.54a6.37,6.37,0,0,1,2.76-5.75c3.2-2.46,7-2.66,10.7-2.84A56.18,56.18,0,0,0,368,157c.22-.08.39-.32.83-.69a8.29,8.29,0,0,0-1.23-.19c-1.11,0-2.2.11-3.3.11-4.11,0-8.11-.58-11.72-2.74-2.23-1.33-4-3.26-4-5.83a13.35,13.35,0,0,1,1.87-7.46,40.12,40.12,0,0,1,7.45-8.92,5.78,5.78,0,0,0,.58-.71l-.28-.3c-.88.75-1.77,1.47-2.62,2.25a44.18,44.18,0,0,0-7.8,9.07c-.44.71-.87,1.42-1.28,2.15-.82,1.47-1.63,2.94-2.43,4.43-1,1.81-1,4-2.47,5.63a20.59,20.59,0,0,0-1.68,2.33c-.6.86-1.11,1.78-1.76,2.59s-1.55,1.75-2.33,2.62l-5.2,6.18c-1.54,1.51-9.13,9.7-11.45,12.24q-4.53,5-9.09,9.93c-.49.53-1,1-1.51,1.54-1.64,1.56-3.35,3.05-4.94,4.67-1.41,1.45-2.71,3-4,4.54a7.76,7.76,0,0,0-.62.95"/><path class="cls-4" d="M330.44,161c-.3-1.56-1.39-6.3-1.46-6.88s-.64-5-.78-6.51c-.09-1-.47-4.18-.45-4.8.1-2.35.25-4.71.52-7.05a9,9,0,0,1,.88-3.35c2.33-4.18,6.24-6,10.78-6.32,3.41-.25,6.86.13,10.3.13,2.65,0,5.32-.1,8-.31a13.54,13.54,0,0,0,2.94-.93c-.23-.42-.37-.55-.51-.55-2.79,0-5.57,0-8.36,0a18,18,0,0,1-10.21-2.81,8.58,8.58,0,0,1-3.93-6.26,17,17,0,0,1,1.11-8.73c1.28-3.08,2.73-6.08,4.1-9.11a5.91,5.91,0,0,0,.24-.82l-.4-.2a29.31,29.31,0,0,0-1.83,2.76c-2.35,4.6-4.6,9.24-6.93,13.85a68.16,68.16,0,0,1-7.94,12.8c-2.88,3.47-5.84,6.89-8.54,10.5-2.19,2.91-4.07,6.06-6,9.14a29,29,0,0,0-1.33,2.68c-.58,1.18-1.22,2.33-1.74,3.55s-.95,2.73-1.58,4c-.71,1.48-1.63,2.87-2.38,4.34-.17.31,0,.78,0,1.18l.37.09c.29-.52.54-1.06.86-1.56,1-1.56,1.95-3.1,2.94-4.65q1.68-2.62,3.39-5.24c.52-.79,1.11-1.54,1.62-2.32.89-1.36,1.67-2.81,2.66-4.09,1.83-2.36,3.77-4.63,5.69-6.92a8.1,8.1,0,0,1,1.16-.92,7.43,7.43,0,0,0-.38,2c.39,2.7.88,5.38,1.3,8.07.08.45,0,.93.05,1.39a11.22,11.22,0,0,0,.25,1.74c.35,1.32.73,2.62,1.11,3.93s.73,2.56,1.16,3.81c.54,1.51,1.12,3,1.75,4.5a19.39,19.39,0,0,0,2,4s2,3.52,1.94,2.29S330.44,161,330.44,161Z"/><path class="cls-4" d="M345.63,119.43a24.73,24.73,0,0,1-3.55-1c-1.12-.46-1.09-1.33-.24-2.18a6.22,6.22,0,0,1,3.75-1.78,5.28,5.28,0,0,1,2.72.44,1.77,1.77,0,0,1,.72,2.21,2.67,2.67,0,0,1-1.94,1.93,8.23,8.23,0,0,1-1.41.17s0,.11-.05.16"/><path class="cls-3" d="M289.28,91.1c.51.48,1,.94,1.53,1.43,1.21,1.2,2.94,4,4.38,4.74a14.14,14.14,0,0,0,6.67,1.37c4.33-.35,5-3.37,5-3.37.9-2.44,1.51-5,2.25-7.49,0-.14.52-1,.29-.67.6-.93.66.17.73.69a12.46,12.46,0,0,1-.93,5.35,21.13,21.13,0,0,0-1.55,10.91,61.32,61.32,0,0,0,1.86,8.13c.82,2.86,1.81,5.69,2.87,8.47,1.27,3.32,2.7,6.58,4.05,9.87a6.82,6.82,0,0,1,.23.77l-.4.2q-4.44-8.25-8.9-16.5l-.44.12c.36,1.73.71,3.45,1.08,5.18,0,.16.14.31.17.47.55,3.35,1.08,6.71,1.66,10,.15.82.5,1.6.71,2.41a2.52,2.52,0,0,1,0,1l-.42.1a2.57,2.57,0,0,1-.37-.74c-.64-2-1.26-4-1.89-6-.51-1.66-1-3.32-1.54-5-.62-1.83-1.33-3.62-2-5.44-.58-1.61-1-3.28-1.73-4.82-1.05-2.23-2.29-4.37-3.5-6.53-.69-1.24-1.45-2.46-2.24-3.64a31.44,31.44,0,0,0-2.19-2.93c-1.81-2.12-3.66-4.2-5.49-6.29a4.89,4.89,0,0,1-.67-2.06C288.58,90.05,289.28,91.1,289.28,91.1Z"/><path class="cls-3" d="M298.81,90.59c2.44,0,3,1.11,3.77,3.37a2.8,2.8,0,0,1-.73,2.6.84.84,0,0,1-1.28.2c-1.25-.9-2.46-1.89-2.63-3.51a6.89,6.89,0,0,1,.52-2.43c0-.13.29-.2.35-.23"/><path class="cls-2" d="M191,60.34l.23.17a1.49,1.49,0,0,0,.48-.32c1.07-1.34,2.09-2.72,3.18-4,.45-.56,1.09-.95,1.54-1.51,1.6-2,3.14-4,4.75-5.93.68-.84,1.46-1.59,2.2-2.39l.58.38c-2.07,5.89-5.18,11.36-7.2,17.28,2-3.07,3.76-6.24,5.52-9.41.12-.22.18-.48.32-.69,1.12-1.76,2.22-3.54,3.38-5.27a62.79,62.79,0,0,1,4.21-6,28.72,28.72,0,0,1,4.49-4,27.67,27.67,0,0,1,4.53-3c1.69-.85,3.62-1.21,5.29-2.09,0,0,5.2-3.76,3.19-3.76s-2.77,2-4.25,2.71a16.3,16.3,0,0,1-7,1.58c-2.06,0-4.07-.61-5.13-2.19a13.73,13.73,0,0,1-2-5.78,48,48,0,0,1,.14-7,8,8,0,0,0-.22-1.34h-.4a11.72,11.72,0,0,0-.41,1.36c-.58,3.38-.94,6.79-1.72,10.11a81.69,81.69,0,0,1-2.88,9,33.41,33.41,0,0,1-2.51,5.39c-1.24,2.14-2.75,4.12-4.06,6.22-1.93,3.11-3.8,6.27-5.69,9.41-.22.35-.39.74-.59,1.1"/><path class="cls-2" d="M213.58,28.65c.32-1.17.55-2.38,1-3.51s2.84-2.07,3.79-1.47a2.9,2.9,0,0,1,1,3.82,6.37,6.37,0,0,1-2.55,3.11,2.78,2.78,0,0,1-2.07.31c-.88-.32-1-1.31-1.13-2.26"/><path class="cls-4" d="M235.08,22.77c1.8-1.49,3.71-2.87,5.61-4.24.29-.21.81-.1,1.23-.13a8.45,8.45,0,0,1,.06,1.23,4.59,4.59,0,0,1-.33.89c-.94,2.58-2.76,4.56-4.59,6.51a62.76,62.76,0,0,0-7.9,10.54c-1.9,3.14-3.52,6.46-5.2,9.73-1.19,2.31-2.29,4.66-3.4,7-.66,1.38-1.25,2.77-1.88,4.16l.3.16c.83-1.26,1.68-2.49,2.46-3.77a70.24,70.24,0,0,1,10.15-13.37c1-1,2-2,3.07-2.86a9.66,9.66,0,0,1,1.87-.95c.16.59.33,1.18.47,1.77a6.77,6.77,0,0,1,.2,1.18,182.33,182.33,0,0,1,.2,21,24.75,24.75,0,0,0,.18,2.84l.3,0c.28-3.18.45-6.38.86-9.55.48-3.73,1.14-7.44,1.76-11.15.29-1.73.71-3.45,1-5.19s1.62-3.12,1.38-5c0-.11.09-.22.13-.33,1.18-2.71,2.31-5.44,3.56-8.11,2.27-4.9,6.27-8.17,10.79-10.77a37,37,0,0,0,10.15-8.12,4.76,4.76,0,0,0,.37-.92c-2,1.28-3.79,2.35-5.5,3.52a22.86,22.86,0,0,1-11.86,4c-1.64.08-3.3,0-4.93.07a8.36,8.36,0,0,0-3.37.7,24.7,24.7,0,0,0-9.92,10.45s-4.21,5.66-4,7.86,2.2-1.9,2.9-3.7S235.08,22.77,235.08,22.77Z"/><path class="cls-4" d="M248.63,6.62c.16-2.93,1.77-4.68,3.87-4.57a3,3,0,0,1,2.69,3.32,7.19,7.19,0,0,1-3.08,4.7c-1.13.86-2.13.64-2.65-.58a21.06,21.06,0,0,1-.83-2.87"/><path class="cls-2" d="M237.51,141.77a41.46,41.46,0,0,1-2-3.71c-.92-2.16-1.69-4.4-2.55-6.59s-1.65-4.31-2.53-6.44c-.45-1.12-1-2.19-1.52-3.28l-.53.15c.05,1,.07,2,.16,3.06.19,2.36.36,4.72.66,7.06.35,2.77.9,5.5,1.24,8.27a32.51,32.51,0,0,1,0,4l-.32.06c-.15-.21-.38-.4-.43-.64-.5-2.76-.92-5.54-1.47-8.3-.25-1.27-.77-2.49-1.11-3.74s-.64-2.52-.87-3.79a51.58,51.58,0,0,0-7.11-18.2c-2.32-3.71-5.09-7.15-7.61-10.75a24.75,24.75,0,0,1-1.44-2.81l.44-.28c.37.36.74.72,1.09,1.1,1.88,2,3.71,4,5.66,5.94a7.76,7.76,0,0,0,2.85,2c1.63.53,3.18,1.63,5.12,1a9.18,9.18,0,0,0,4.2-3.27c1.95-2.33,2.59-5.16,3.64-7.84a20.64,20.64,0,0,0,.66-3,8.3,8.3,0,0,1,.38-1h.38a7.61,7.61,0,0,1,.31,1.46,17.16,17.16,0,0,1-1.7,7.34A28,28,0,0,0,231,116.8c.94,4.64,2,9.25,3.19,13.84.48,1.9,1.28,3.73,2,5.58.47,1.33,1,2.63,1.42,4a4.94,4.94,0,0,1-.09,1.61Z"/><path class="cls-2" d="M225.75,99.15c-.29,1-.51,2-.88,2.91-.24.61-.83.64-1.39.37a6.31,6.31,0,0,1-3.75-5.23,2.77,2.77,0,0,1,1.79-2.67c1.5-.57,1.77-.62,3.13,1.42a3.56,3.56,0,0,1,.83,3.13l.27.07"/><path class="cls-6" d="M233.26,161.4c.34-.76.67-1.52,1-2.28.23-.49.68-1,.7-1.45.06-1.6,1.07-2.67,1.85-3.91s1.33-2.8,2-4.17,1.51-2.7,2.31-4,1.78-2.75,2.6-4.17c1.71-2.92,4.05-5.34,6.15-8a43.94,43.94,0,0,0,3.6-6.18c0-.07-.06-.23-.16-.55-3.9,1.1-6.1,4.48-9.33,6.57a13.29,13.29,0,0,1,.79-1.76,26.57,26.57,0,0,1,6.95-8,10.64,10.64,0,0,1,6.29-2.11c3,0,6,.08,8.91-1.1,3.3-1.38,6.59-2.77,9.25-5.27.41-.38.87-.7,1.31-1l.33.24a6.23,6.23,0,0,1-.72,1.49,28,28,0,0,1-7,6.1c-3.95,2.35-8,4.63-10.78,8.42a31.24,31.24,0,0,0-4.8,10c-.51,1.76-.87,3.57-1.31,5.35-.21.83-.49,1.64-.7,2.47a26.28,26.28,0,0,0-.67,3c-.28,2-.19,4.17-.76,6.12-.83,2.79-.37,5.61-.73,8.4a13.76,13.76,0,0,1-.42,1.65h-.33a19.89,19.89,0,0,1-.21-2.29c0-5.89.12-11.79.09-17.68a7.37,7.37,0,0,0-.91-2.75,1.48,1.48,0,0,0-1.16.1,56.38,56.38,0,0,0-9,9.91c-1.69,2.25-3.12,4.71-4.66,7.07l-.52-.22"/><path class="cls-6" d="M264,112a2.6,2.6,0,0,1,2.6,1.42,3.24,3.24,0,0,1-.43,3.49,21.89,21.89,0,0,1-2.09,2.32,1.83,1.83,0,0,1-3.15-.83,15.84,15.84,0,0,1,.25-4.55c.24-1.38,1.39-1.87,2.82-1.85"/><path class="cls-6" d="M295.33,18a2.74,2.74,0,0,1,.1.69c-.16,3.88-.49,7.76-.46,11.64a12,12,0,0,0,3.3,8.29c2.87,3,6.56,3.22,10.38,2.57a39,39,0,0,0,9.74-3.11c.83-.38,1.62-.83,2.43-1.24l.25.27c-.29.35-.51.84-.89,1-2.37,1.26-4.71,2.6-7.19,3.62-3.21,1.31-6.65,2.14-9.81,3.58-3.6,1.63-6.86,4-7.94,8a13.55,13.55,0,0,0,0,6.11,36.4,36.4,0,0,0,2.6,7.24,60.86,60.86,0,0,0,4,7.49c2.25,3.52,4.73,6.88,7.1,10.32a1.28,1.28,0,0,1,.17,1.09,3.44,3.44,0,0,1-.7-.4c-4.55-4.32-9.08-8.67-12.16-14.24-1.75-3.16-3.36-6.41-5.06-9.61a1.68,1.68,0,0,0-.73-.57c-.06,0-.38.31-.44.51-.53,1.74-1.07,3.47-1.54,5.22-1,3.59-1.93,7.18-2.8,10.79-.67,2.78-1.25,5.59-1.76,8.42-.31,1.74-.4,3.52-.65,5.28a10,10,0,0,1-.56,1.62l-.35,0a7.67,7.67,0,0,1-.13-1.5c.47-5.88.85-11.75,1.53-17.6a67.62,67.62,0,0,1,1.91-9.43,106.15,106.15,0,0,1,3.45-11.22,64.24,64.24,0,0,0,3.72-18.16c.33-4,.8-8,1.2-12a17.15,17.15,0,0,1,.11-1.9c.2-1,.53-1.93.81-2.9l.42.1"/><path class="cls-6" d="M304.53,37.2l-.43,0c-.93,0-2,0-2.39-1a2.8,2.8,0,0,1,.8-2.86,10.6,10.6,0,0,1,4.1-3.19,2.89,2.89,0,0,1,3.31,4.59,9.87,9.87,0,0,1-5.39,2.53"/><path class="cls-5" d="M287.34,8.25c.63.34,1,.55,1.32.71,2.56,1.17,5,2.67,7.7,3.41a12.13,12.13,0,0,0,8.56-.72c1.33-.63,2.72-1.16,4.09-1.72,2-.79,3.95-.3,5.87.15,3.25.75,6.45,1.65,9.66,2.54a28.86,28.86,0,0,1,2.69,1.08,3.87,3.87,0,0,1-3,.19c-3-.45-6.11-.79-9.17-1.15a3.77,3.77,0,0,0-.92.27,18.39,18.39,0,0,0,1.68,2,86.7,86.7,0,0,0,13,9.65q5.47,3.3,11.07,6.38c3.12,1.74,6.33,3.32,9.49,5a1,1,0,0,1,.53.72c-9.43-2.77-18.79-5.68-27.33-10.92a136.55,136.55,0,0,1,9.94,24l-.57.28c-.47-.82-.93-1.64-1.42-2.43-3-4.8-6-9.62-9.09-14.37a73.7,73.7,0,0,0-9.23-11.6,15.16,15.16,0,0,0-9.11-4.73c-5.82-.71-10.56-3.59-15-7.23a3.73,3.73,0,0,1-.6-.65c-.07-.08-.06-.23-.17-.76"/><path class="cls-5" d="M302.85,9.94a7.34,7.34,0,0,1-5.71-3.5,3.48,3.48,0,0,1,.14-2.73A1.93,1.93,0,0,1,299.82,3a8.44,8.44,0,0,1,4.81,3.91c.94,1.67,0,3.38-1.78,3.08"/><path class="cls-5" d="M242.68,78.87v.73c0,.8-.14,1.54-1,1.72a2.25,2.25,0,0,1-2.34-.7c-.55-.64-1.32-1.09-1.84-1.75a4,4,0,0,1,.35-5.32,2.89,2.89,0,0,1,3.1.24c1.56,1.36,1.79,3.18,1.77,5.08"/><path class="cls-5" d="M257.6,117.25l.3-.11c0-.16.12-.34.07-.47-.86-2-1.72-4.09-2.62-6.11-.72-1.64-1.57-3.22-2.23-4.89s-1.13-3.44-1.76-5.14c-.51-1.39-1.31-2.72-1.68-4.15A73.76,73.76,0,0,1,248,88.46a19.45,19.45,0,0,1,.63-8c.78-2.82,1.87-5.67,1.51-8.71-.08-.64-.23-1.27-.35-1.9h-.35c-.12.29-.35.58-.34.86.11,2.68-1.11,5-1.94,7.43a8.12,8.12,0,0,1-3,4.4,5.8,5.8,0,0,1-6.82.28c-.63-.41-1.37-.65-2-1.08-1.3-.9-2.52-1.91-3.82-2.8,0,0-.49-.55-.89,0s.19,1.13.19,1.13c1,1,1.92,2.1,2.88,3.15,1.18,1.29,2.45,2.51,3.52,3.89A30.12,30.12,0,0,1,239.69,91c1.58,2.88,3.23,5.73,4.59,8.72,1.22,2.66,2.08,5.47,3.09,8.22a4.48,4.48,0,0,1,.11.5c.72,2.56,1.4,5.13,2.17,7.67.33,1.09.84,2.12,1.26,3.18l.31-.07a8.08,8.08,0,0,0-.15-1.31c-.21-.9-.53-1.79-.72-2.7-.65-3.09-1.29-6.18-1.89-9.28-.41-2.21-.74-4.43-1.1-6.65l.53-.19q4.85,9.08,9.71,18.14"/><path class="cls-6" d="M175.26,101.69c-2.6,3-4.58,6-6.76,8.91l-.37-.21a32.12,32.12,0,0,1,1.48-3c1.81-2.9,3.71-5.75,5.54-8.64L177.94,95c.84-1.15,1.6-2.36,2.5-3.46,1.48-1.84,3-3.65,4.59-5.39s3.43-3.61,5.24-5.32,3.56-2.93,5.21-4.54c2-1.91,3.7-4,5.66-6,3.69-3.63,6.12-8.18,9.1-12.33,1.33-1.85,2.54-3.79,3.87-5.64.81-1.13,1.74-2.18,2.64-3.23a3.44,3.44,0,0,1,.75-.52l.24.24-2.39,3.43a32.79,32.79,0,0,0-5.17,10.23c-.7,2.66-.9,5.47.49,8.07a10.39,10.39,0,0,0,5.64,5,52.19,52.19,0,0,0,5,1.73,22.38,22.38,0,0,0,8.62,1c.88-.11.79.2.63.77-.08.3-1,.42-1,.42a5.39,5.39,0,0,1-1,.14c-3.44.31-5-.22-8-.63-3.48-.48-6.91-1.29-10.4-1.6A13.21,13.21,0,0,0,201,79.68a11.36,11.36,0,0,0-4.38,7,68,68,0,0,0-1.37,17.82c.19,3.48.9,6.94,1.36,10.41.08.55.06,1.1.1,1.8-1.5-.86-3.89-10.51-4.49-15.54a60.57,60.57,0,0,1,.11-16.57,7.66,7.66,0,0,0-1.05.62A137.74,137.74,0,0,0,176.85,100S175,102,175.26,101.69Z"/><path class="cls-6" d="M219.14,66.21l.53-.12a2.86,2.86,0,0,1,3.21.94,2.94,2.94,0,0,1-.36,3.6,3.47,3.47,0,0,1-1.7,1,7.9,7.9,0,0,1-5.68-.2c-1.28-.61-1.46-1.18-.63-2.36a7.94,7.94,0,0,1,4.63-2.89"/><path class="cls-5" d="M173.94,90.37c-.53-2.92-1-5.84-1.55-8.75-.06-.29-.3-.71-.53-.77s-.56.25-.79.47c-5,4.88-8.18,11-11.13,17.16-.4.84-.75,1.7-1.13,2.55,0,0-.15.07-.45.21a5.29,5.29,0,0,1,.08-1.31c1.06-3.39,2-6.83,3.28-10.13,2.2-5.63,4.29-11.31,7.7-16.38,1.46-2.17,2.79-4.42,4.06-6.7a10.57,10.57,0,0,0,1.14-3.28c.2-1.08-.23-1.33-1.23-.79a7.36,7.36,0,0,0-1.95,1.57c-1.66,1.86-3.23,3.79-4.84,5.69-.22.25-.48.45-.92.86a3.45,3.45,0,0,1,0-1c1.49-3.4,2.88-6.86,5.68-9.51,2.26-2.13,4.71-3.65,7.95-3.72,3-.06,5.71-1.18,8.44-2.39,3.06-1.35,5.31-3.62,7.67-5.81a20.06,20.06,0,0,0,1.48-1.69c.18.36.31.52.28.57a37.89,37.89,0,0,1-3.8,5c-3,2.87-6.34,5.34-9.25,8.27a23.37,23.37,0,0,0-5.32,9.31,54.79,54.79,0,0,0-2.47,14.47c-.21,3.59-.14,7.19-.21,10.78,0,0,.58,8.59.58,9.4s-.45-.46-.55-.86S173.94,90.37,173.94,90.37Z"/><path class="cls-5" d="M178.7,49.07c.09-1.92,1.6-3.77,3.55-3.63a2.52,2.52,0,0,1,2.23,1.86,6.38,6.38,0,0,1-2.61,5.61,1.33,1.33,0,0,1-2.2-.6c-.42-1-.65-2.15-1-3.24"/><path class="cls-3" d="M286.05,54.63c-.29,2.22-.47,4.46-.88,6.66a24.44,24.44,0,0,1-3.92,9.56,12.65,12.65,0,0,1-12.18,5.81,16.42,16.42,0,0,1-3.05-.87l-1.33-.36c2.95,12.09,5.84,23.94,8.74,35.79l-.3.11a18.18,18.18,0,0,1-1-2c-1.45-4-2.87-8-4.27-12.06-.77-2.19-1.47-4.41-2.26-6.59-1.7-4.69-3.44-9.36-5.15-14-.46-1.27-.8-2.59-1.32-3.84-.32-.76-.94-1.39-1.31-2.13-1.9-3.82-3.71-7.68-6.44-11a47,47,0,0,1-5-6.82,90,90,0,0,1-4-9.28,4.15,4.15,0,0,1-.08-1.33l.36-.11c.36.79.73,1.58,1.06,2.38A22.79,22.79,0,0,0,248,51.77c1.63,1.68,3.34,3.35,5.88,3.36a8.27,8.27,0,0,0,3.43-.71c3.9-1.74,6.29-5,8.1-8.71.57-1.17,1.12-2.34,1.72-3.5a1.83,1.83,0,0,1,1-.85,8.51,8.51,0,0,1,0,1.13c-.71,5.19-3.12,9.82-4.86,14.66a35.74,35.74,0,0,0-1.83,6.44c-.54,3.3,1.17,5.89,4.55,7.58a11.46,11.46,0,0,0,6.38,1.37A9.93,9.93,0,0,0,278,69.85c3.19-2.85,4.74-6.61,6.2-10.44.28-.71.29-1.51.57-2.2.35-.88.85-1.69,1.28-2.54Z"/><path class="cls-3" d="M253.29,48.34a23.58,23.58,0,0,1,1-3c.63-1.21,2.86-1.4,4.18-.45,1.56,1.11,2,2.34,1.09,4.12A13.85,13.85,0,0,1,257,52.34a1.33,1.33,0,0,1-2.34-.38,29.34,29.34,0,0,1-1.35-3.62"/><path class="cls-2" d="M285.36,44.26c-.64-1.74-1.27-3.48-1.94-5.22-.45-1.21-1-2.39-1.42-3.62-.86-2.75-1.62-5.53-2.43-8.3a1.34,1.34,0,0,0-.45-.61A182.08,182.08,0,0,1,270,45.83l-.36-.14c.21-.66.41-1.32.64-2,1-2.64,2-5.26,2.87-7.92s1.83-5.62,2.56-8.48c1-4,2.1-8.11,1.42-12.39a9.4,9.4,0,0,0-2.67-4.8,15.45,15.45,0,0,1-3.68-8.89,11.61,11.61,0,0,1,0-1.18l.35,0,.27,1c.78,3,1.84,5.88,4.5,7.76a14.76,14.76,0,0,0,3.82,1.93,5.26,5.26,0,0,1,2.87,2.14c1.76,2.9,3.29,6,4.9,9a2.07,2.07,0,0,1,.12.63l-.26.12c-.73-1.09-1.45-2.19-2.21-3.26s-1.73-2.4-2.62-3.57a3,3,0,0,0-.72-.53c-.14.3-.4.6-.39.9a66.31,66.31,0,0,0,.52,7.47c.85,5.06,1.87,10.1,3,15.11.53,2.42,1.37,4.77,2.06,7.15l-.26.13a9.93,9.93,0,0,0-.67-1.09,5.32,5.32,0,0,0-.7-.64Z"/><path class="cls-2" d="M280.72,5.7c-.33.75-.66,1.62-1.11,2.42-.3.51-.77.51-1.23.05a5,5,0,0,1-1.47-5A1.38,1.38,0,0,1,278.41,2a2.3,2.3,0,0,1,1.53,1,12.17,12.17,0,0,1,.78,2.72"/><path class="cls-4" d="M313,51.25c1.19.08,1.85.68,2.17,2.11a7.47,7.47,0,0,1-.46,5.46c-.4.7-.92.79-1.42.29a9.24,9.24,0,0,1-2.65-3.79c-.6-1.86.73-4.17,2.36-4.07"/><path class="cls-4" d="M322.85,48.71a16.47,16.47,0,0,1-1,3.26,29.94,29.94,0,0,1-3,5.13,27.59,27.59,0,0,1-4.91,5c-3.18,2.41-5.34,5.33-5.59,9.35-.19,2.9-.06,5.83,0,8.74a3.73,3.73,0,0,0,.31,1l.43,0a11.88,11.88,0,0,0,.44-1.83A20.11,20.11,0,0,1,311,72a10,10,0,0,1,1.28-1.73,11.71,11.71,0,0,1,1.1,1.9c.93,2.69.49,5.43.31,8.18a75.93,75.93,0,0,0,2,20.92c.69,3.14,1.22,6.32,1.85,9.47a5.15,5.15,0,0,0,.51,1.06l.37-.13c0-.36,0-.72,0-1.08-.24-4.31-.71-8.63-.62-12.93A73,73,0,0,1,319.07,88c.07-.52.39-.93,1-.44a13.41,13.41,0,0,1,1.69,1.68q6.4,8,12.78,16.1a7.15,7.15,0,0,0,.67.68c.13-.35.1-.52,0-.66C332.13,100.22,329,95.14,326,90c-1-1.69-1.48-3.66-2.42-5.39a39.21,39.21,0,0,1-4.23-13.08,23.18,23.18,0,0,1,1.52-11.82c1.43-3.83,3.18-7.6,3-11.85a13.15,13.15,0,0,0-.15-2.44c-.19-.75-.44-.16-.44.43A27.13,27.13,0,0,1,322.85,48.71Z"/><path class="cls-6" d="M356.49,64.69c-1.8-1.63-3.8-3.06-5.69-4.58-1.24-1-2.46-2-3.76-2.93-2-1.4-4.31-1.37-6.6-1.46-3.3-.13-6.48-.72-9.22-2.73a28.15,28.15,0,0,1-6.54-7.18,6.46,6.46,0,0,1-.54-.69c-.24-.35-.38.19-.05,1.2a11.71,11.71,0,0,0,1.24,2.32,19.75,19.75,0,0,0,9.33,9.14,14,14,0,0,1,7.62,8.41,54.75,54.75,0,0,1,2.94,15.17c.47,9,.85,18,1.27,27.07,0,.49.14,1,.21,1.47a.93.93,0,0,0,.49-.71c.44-3.66,1-7.31,1.26-11,.39-6.43.53-12.88.8-19.32a8.55,8.55,0,0,1,.18-1.11l.38-.11c5.51,9.26,13.32,16.44,21,23.74a4.27,4.27,0,0,0-.76-1.54c-.93-1.21-1.92-2.36-2.8-3.61-2.75-3.9-5.57-7.77-8.17-11.78s-5-7.92-7.25-12c-1.78-3.34-3.1-6.93-4.61-10.42a3.68,3.68,0,0,1-.1-1.06,3.07,3.07,0,0,1,1.16.18c1.83,1.11,3.66,2.24,5.45,3.43q1,.67,1.95,1.38s5,5.27,4.77,4.13S356.49,64.69,356.49,64.69Z"/><path class="cls-2" d="M369.45,69c-.1.85-.54,1.2-1.23.88a3.14,3.14,0,0,1-2.17-2.9,2,2,0,0,1,.53-1.45,1.43,1.43,0,0,1,2,.45,4.32,4.32,0,0,1,.9,3"/><path class="cls-2" d="M363,68.74a8.1,8.1,0,0,0,4.65,3.09A3.47,3.47,0,0,0,371,70.68c1.49-1.59,1.82-3.57,2.25-5.55a7.11,7.11,0,0,1,.34-1c.13,0,.32-1.56.69-.69a5.34,5.34,0,0,1-.2,2.13c-.38,1.72-.9,3.42-1.23,5.15a14.83,14.83,0,0,0,.51,7.73c.8,2.4,1.66,4.79,2.54,7.16.46,1.27,1,2.49,1.54,3.74a2.7,2.7,0,0,1,.21,1.08,20.09,20.09,0,0,1-2.7-4.63c-.82-1.61-1.6-3.25-2.4-4.87l-.3,0a3.2,3.2,0,0,0-.19,1c.21,1.38.43,2.75.73,4.1.42,1.84.92,3.66,1.35,5.5a5.32,5.32,0,0,1,0,1.2l-.3,0c-.44-1.29-1-2.56-1.31-3.88a48.6,48.6,0,0,0-4.87-12.63,32.13,32.13,0,0,0-5.44-6.81s-1.23-2-1.93-2.94C359.34,65.05,360.39,64.8,363,68.74Z"/><path class="cls-6" d="M341.68,51.25c-.23.55-.35,1.4-.74,1.56a2.53,2.53,0,0,1-1.88-.27,6,6,0,0,1-2.79-4.39,1.76,1.76,0,0,1,1.06-2,1.81,1.81,0,0,1,2.23.49,8,8,0,0,1,2.12,4.63"/><path class="cls-2" d="M336.8,97.94c-.87-3.42-1.62-6.86-2.64-10.23a49.92,49.92,0,0,0-3.45-9.51c-1.79-3.31-4.33-6.21-6.55-9.28l-1.54-2.13.23-.28a12.7,12.7,0,0,1,1.19.84,47.14,47.14,0,0,0,3.52,3.28,9.06,9.06,0,0,0,3.19,1.45c1.86.45,4.16-1.21,4.9-3.42.62-1.87,1.13-3.78,1.71-5.66.05-.18.21-.32.59-.44a17.18,17.18,0,0,1-.05,3.29,21.52,21.52,0,0,1-1.28,4.21,14.2,14.2,0,0,0-.28,9c1,3.84,2.42,7.56,3.7,11.31.62,1.83,1.32,3.62,1.81,5.51-2.79-4.24-4.32-9.1-6.86-13.6a3.11,3.11,0,0,0-.21,1c.63,3.72,1.28,7.42,1.94,11.14.2,1.12.43,2.23.65,3.34l-.57.12"/><path class="cls-2" d="M332.41,68.84a1.12,1.12,0,0,1-1.29,1,3.59,3.59,0,0,1-2.34-4.27,1.64,1.64,0,0,1,2.66-.3,10.38,10.38,0,0,1,.85,1.85A7,7,0,0,1,332.41,68.84Z"/><path class="cls-5" d="M302.18,156.75c-.08-.67-.14-1.35-.23-2-.06-.44-.3-.91-.19-1.3.34-1.26-.18-2.34-.48-3.5s-.35-2.5-.57-3.75-.51-2.47-.81-3.7-.71-2.59-1-3.89a55,55,0,0,0-2.83-7.7,36.11,36.11,0,0,1-1.29-5.71c0-.06.1-.16.26-.38,2.77,1.81,3.65,5,5.66,7.4a11.46,11.46,0,0,0-.19-1.56,21.67,21.67,0,0,0-3.46-7.91,8.8,8.8,0,0,0-4.37-3.18c-2.37-.72-4.73-1.42-6.67-3a24,24,0,0,1-5.91-6.36c-.23-.4-.51-.76-.77-1.14l-.31.11a4.8,4.8,0,0,0,.19,1.33,22.92,22.92,0,0,0,4,6.48c2.5,2.8,5.09,5.57,6.34,9.21a25.77,25.77,0,0,1,1.29,8.94c0,1.5-.21,3-.3,4.49-.05.7,0,1.4-.06,2.09a23.58,23.58,0,0,1-.22,2.52,34.64,34.64,0,0,0-.91,5c0,2.38-1.09,4.47-1.5,6.72a10.61,10.61,0,0,0-.07,1.39l.26.07c.24-.58.55-1.14.73-1.73,1.42-4.6,2.79-9.21,4.26-13.79a5.89,5.89,0,0,1,1.39-1.91c.07-.08.72.13.87.36a45.75,45.75,0,0,1,4.57,9.92c.76,2.17,1.27,4.42,1.9,6.65l.45-.05"/><path class="cls-5" d="M291.69,110.12a2.15,2.15,0,0,0-2.45.53,2.87,2.87,0,0,0-.57,3,19.68,19.68,0,0,0,1.06,2.45,1.52,1.52,0,0,0,2.74.11,14.45,14.45,0,0,0,1-3.85c.17-1.2-.63-1.9-1.77-2.24"/><path class="cls-2" d="M278.44,160.52c-.87-3.4-1.62-6.85-2.64-10.22a49.89,49.89,0,0,0-3.44-9.51c-1.8-3.31-4.34-6.2-6.55-9.28l-1.54-2.13.23-.28a11,11,0,0,1,1.18.85,47,47,0,0,0,3.52,3.26,8.88,8.88,0,0,0,3.2,1.46c1.85.45,4.15-1.21,4.89-3.42.62-1.87,1.14-3.78,1.71-5.67.06-.17.21-.31.59-.43a17.92,17.92,0,0,1,0,3.28,22.22,22.22,0,0,1-1.29,4.23,14.07,14.07,0,0,0-.28,9c1,3.85,2.42,7.57,3.7,11.33.63,1.82,1.32,3.62,1.81,5.5-2.79-4.24-4.32-9.09-6.86-13.61a3.19,3.19,0,0,0-.2,1.06q.93,5.58,1.93,11.14c.2,1.11.43,2.22.65,3.34l-.57.11"/><path class="cls-2" d="M274,130.61a5.93,5.93,0,0,1,0,.73,1.07,1.07,0,0,1-1.21.92,3.36,3.36,0,0,1-2.19-4,1.54,1.54,0,0,1,2.49-.28,17.27,17.27,0,0,1,1.18,2.54l-.27.11"/><path class="cls-2" d="M326.75,168.62a5.27,5.27,0,0,1-3.17,2.68c-4.63,1.55-8.82,3.78-11.9,7.71-.8,1-1.57,2.09-2.29,3.18-1.13,1.75-2.27,3.5-3.29,5.32-1.39,2.48-2.65,5-4,7.53-.39.74-.87,1.43-1.3,2.14l-.52-.23a22.08,22.08,0,0,1,.95-2.95c2-4.13,4.06-8.22,6.1-12.33a1.1,1.1,0,0,0,0-.94L296,193.93c-.13-.08-.25-.17-.37-.26a2.66,2.66,0,0,1,.26-.75c1.21-1.66,2.48-3.28,3.65-5,1.33-1.93,2.61-3.9,3.85-5.88S306,178,307.1,175.8a28.24,28.24,0,0,0,3.33-10c.15-1.42.31-2.85.59-4.24a9.85,9.85,0,0,1,.87-2.17c.06-.1.51-.15.52-.12.13.25.33.63.23.79-1.06,1.6-.69,3.62-.63,5.07a8.8,8.8,0,0,0,1.48,4.84c1.35,2,4,2.38,6.36,1.35,1.14-.5,2.33-.88,3.46-1.39s2.13-1.08,3.2-1.63l.24.29"/><path class="cls-2" d="M314.59,166c-.22-1.13.46-2,1.08-2.81a1.66,1.66,0,0,1,2.05-.51c.54.2,1.25.83,1.28,1.31a3.69,3.69,0,0,1-.71,2.25,8.33,8.33,0,0,1-2.19,1.89c-.58.37-1.38-.25-1.5-1.11a8.59,8.59,0,0,1,0-1"/><path class="cls-3" d="M325.49,194.3c-3-1.17-9.49.78-12.37.59.36-.4,4.3-1.63,4.49-1.73,3-1.56,6.26-2.54,9.67-2a11.12,11.12,0,0,1,4.49,1.94,18.22,18.22,0,0,0,10.85,3.61c1.27,0,2.54-.08,3.81-.1a6.38,6.38,0,0,1,1.13.2c0,.14,0,.29,0,.43a11.07,11.07,0,0,1-2.2.6,51.14,51.14,0,0,1-7.1.26,33.22,33.22,0,0,0-10,1.07,18.47,18.47,0,0,0-7.89,4.13c-2.92,2.5-5.36,5.56-8,8.37-.77.82-1.63,1.56-2.37,2.42-1.14,1.33-2.22,2.72-3.32,4.09s-2.16,2.69-3.23,4c-.18-.13-.35-.26-.54-.38.74-1.22,1.46-2.45,2.22-3.64.27-.42.71-.73,1-1.15,1-1.51,2.11-3,3.05-4.59,1.23-2.05,2.37-4.16,3.5-6.27a1.48,1.48,0,0,0,.09-1.27c-.21-.25-.86-.25-1.28-.16-3,.6-6.05,1.16-9,1.92a30.6,30.6,0,0,0-4.08,1.7l-3.7,1.54-.21-.34c.54-.4,1.05-.84,1.62-1.19,1.45-.9,2.91-1.79,4.4-2.64,2-1.12,3.91-2.26,5.93-3.27a117.23,117.23,0,0,1,11.8-4.58,36,36,0,0,0,4.43-1.74,24,24,0,0,0,2.87-1.89"/><path class="cls-3" d="M337.35,186.79c1.79.09,2.53.71,2.75,1.93s-.16,1.92-1.55,2.45a12.92,12.92,0,0,1-2.47.91,2,2,0,0,1-1.63-.52,2.39,2.39,0,0,1-.08-1.81c.53-1.65,1.44-3,3-3"/><path class="cls-2" d="M234.88,191.08a5.91,5.91,0,0,1,2.84,3.32,28.71,28.71,0,0,0,2.94,5.54,23.56,23.56,0,0,0,7.5,5.91l7.87,4.31a1.24,1.24,0,0,1,.53.69c-4.16-1.12-7.77-3.49-11.67-5.19l-.26.37,9.67,8-.38.53c-.9-.54-1.81-1.06-2.68-1.65-3.41-2.24-6.68-4.74-10.25-6.69a26.64,26.64,0,0,0-11.24-3.14,6.85,6.85,0,0,1-1.92-.7c0-.17.07-.33.11-.5a2.6,2.6,0,0,1,.9-.08,9.5,9.5,0,0,0,7.22-.76c1.36-.63,1.9-2.82,1.12-4.62s-1.53-3.57-2.3-5.36"/><path class="cls-2" d="M233.25,200.09a13.67,13.67,0,0,1-2.37-1.6,1.73,1.73,0,0,1-.3-1.61A2,2,0,0,1,232,196c1.14-.16,3,1.24,3.33,2.37.29.92-.54,1.58-1.9,1.51l-.18.26"/><path class="cls-3" d="M375.61,148.39c-.74-2.12-1.55-4.23-2.21-6.37-.87-2.83-1.62-5.69-2.41-8.53-.63-2.28-1.23-4.57-1.88-6.84-.07-.23-.33-.42-.5-.62-.16.29-.46.59-.46.88.12,6.4.29,12.8.43,19.2,0,1.2,0,2.4,0,3.61l-.53.05a9,9,0,0,1-.33-1.31c-.49-4.51-.88-9-1.46-13.51a42,42,0,0,0-1.49-7.32c-1.81-5.74-1.63-8.78-4.3-14.2-1.61-3.29-5.28-9.3-6.66-12.69a3.63,3.63,0,0,1,0-.94c.55.46,1,.66,1.18,1a27,27,0,0,0,6.24,7.54,7.46,7.46,0,0,0,6,2,5,5,0,0,0,2.14-1c2.67-1.92,4.16-4.71,5.39-7.66.59-1.41,1-2.88,1.54-4.33l.54,0a4.49,4.49,0,0,1,.12,1.69,33.57,33.57,0,0,1-2.41,6.63,27.39,27.39,0,0,0-3.28,17c.51,5,1.38,10,2.31,14.91.62,3.25,1.63,6.43,2.45,9.65a3.84,3.84,0,0,1,0,1l-.46.12"/><path class="cls-3" d="M367.08,102.79a24.71,24.71,0,0,1-.72,2.45,1.16,1.16,0,0,1-1.94.58,6.34,6.34,0,0,1-2.89-4.69c-.17-1.55,1.5-3.34,3-3a3.49,3.49,0,0,1,1.8,1.81,12.42,12.42,0,0,1,.73,2.84"/></g></g></svg>