<?xml version="1.0" encoding="UTF-8"?><svg xmlns="http://www.w3.org/2000/svg" viewBox="0 0 1676.49 586.1"><defs><style>.d{fill:#f8f3d4;}.e{fill:#5ab896;}</style></defs><g id="a"/><g id="b"/><g id="c"><rect class="e" x="38.67" y="270.83" width="1604.67" height="281.34" rx="28.15" ry="28.15"/><g><g><path class="d" d="M1311.71,35.69c0,117.42-89.16,213.82-203.35,225.68q-105.09-12.19-59.78-108.98c48.94-95.21,159.16-126.66,263.13-116.7Z"/><path class="e" d="M1313.19,34.34c.55,5.31,.93,11.53,.63,17.11-.16,8.69-.98,17.69-2.15,26.29-13.89,102.65-101.11,186.84-204.18,197.53-21.35-2.09-41.64-3.24-63.22-7.46-19.61-3.82-38.67-12.91-40.93-35.56-1.03-10.3,1.6-20.6,4.22-29.45,5.05-15.99,10.86-29.76,17.04-44.66,17.29-45.4,49.5-81.6,92.31-104.38,45.59-24.37,97.78-32.74,148.75-28.19,10.25,.92,20.98,2.42,31.05,4.52,5.26,1.02,11.74,2.53,16.49,4.24h0Zm-2.96,2.69c-3.97,.55-6.65,1.37-10.21,1.62-3.41,.34-8.01,.7-11.4,1.1-64.28,6.63-130.52,24.63-179.56,68.56-16.8,15.08-31.53,33.38-42.64,52.86-8.4,16.63-19.12,36.08-25.88,52.95-2.26,5.95-4.19,11.21-4.11,16.58-.06,.08-.03,.24,.49,.8,3.68,3.02,9.51,4.69,14.43,6.03,18.54,4.64,39.25,7.09,58.63,9.97l-3.05-.02c103.19-7.32,187.59-88.98,200.91-191.3,.61-5.45,1.43-13.6,2.4-19.16h0Z"/></g><g><path class="d" d="M1109.71,283.5v219.18c0,13.25-10.75,24-24,24h0c-13.25,0-24-10.75-24-24v-203h-19.18c-130.07,0-235.53-103.55-235.53-231.27,146.06-18.98,293.36,63.55,302.71,215.09Z"/><path class="e" d="M1111.71,283.44c-1.15,73.22,11.19,145.72,14.84,218.71,.32,8.21-1.89,16.49-6.32,23.44-19.27,29.88-64.72,23.13-74.69-11.02-2.67-9.2-1.21-18.87-1.13-28.3,2.19-61.86,10.29-124.67,11.07-186.58l6.22,6.22c-4.02-.09-8.04-.12-12.06-.17-62.32,.86-125.66-17.32-175-56.35-54.68-42.5-87.21-111.56-88.41-180.97-.2-10.3,7.32-18.97,17.25-20.45,73.32-11.19,152.82,3.54,213.2,48.01,59.61,43.86,91.06,114.82,95.01,187.47h0Zm-4,.12c-1.88-27.77-9.77-55.34-23.93-79.34l-3.29-5.45-.82-1.36c-1.78-2.71-4.53-6.49-6.33-9.12-59.32-77.68-169.21-109.46-263.67-99.31l18.07-20.57c-.76,29.27,4.56,58.78,15.97,86.11,35.27,83.45,113.23,142.23,205.94,139.11,4.02-.05,8.04-.08,12.06-.17,3.37-.08,6.15,2.6,6.21,5.97,.43,25.8,1.88,52.19,3.79,77.99,2.66,35.35,6.09,73.52,7.29,108.84,.19,5.35,.34,10.69,.46,16.03v.24c0,.09,0,.17,.02,.17,.09,.25,.03,.53,.12,.77,1.59,7.01,11.24,6.87,13.09-.08,3.93-73.26,16.06-146.3,15.02-219.84h0Z"/></g></g><g><g><path class="d" d="M157.82,371.35h0c0,9.24,7.49,16.73,16.73,16.73h29.32c9.24,0,16.73,7.49,16.73,16.73v13.38c0,9.24-7.49,16.73-16.73,16.73h-29.32c-9.24,0-16.73,7.49-16.73,16.73v46.85c0,9.24-7.49,16.73-16.73,16.73h-16.19c-9.24,0-16.73-7.49-16.73-16.73v-174c0-9.24,7.49-16.73,16.73-16.73h101.31c9.24,0,16.73,7.49,16.73,16.73v13.39c0,9.24-7.49,16.73-16.73,16.73h-51.66c-9.24,0-16.73,7.49-16.73,16.73Z"/><path class="d" d="M407.16,485.11v13.39c0,9.24-7.49,16.73-16.73,16.73h-86.42c-9.24,0-16.73-7.49-16.73-16.73v-174c0-9.24,7.49-16.73,16.73-16.73h16.19c9.24,0,16.73,7.49,16.73,16.73v127.15c0,9.24,7.49,16.73,16.73,16.73h36.77c9.24,0,16.73,7.49,16.73,16.73Z"/><path class="d" d="M618.46,383.14c.07,.62,.09,1.24,.09,1.85v47.92h-.36c0,10.94-2.13,21.37-6.38,31.29-4.26,9.93-10.29,18.8-18.09,26.6-8.04,7.81-17.26,13.89-27.67,18.24-10.4,4.35-21.28,6.52-32.63,6.52h-.35c-11.59,0-22.52-2.17-32.81-6.52-10.29-4.35-19.57-10.43-27.84-18.24-7.81-7.8-13.78-16.67-17.91-26.6-4.14-9.92-6.33-20.35-6.57-31.29v-47.59c0-.62,.03-1.23,.09-1.84,1.02-9.48,3.53-18.43,7.54-26.86,4.13-8.69,9.75-16.61,16.85-23.75,8.03-8.03,17.25-14.22,27.66-18.57,10.4-4.35,21.4-6.53,32.99-6.53h.35c11.35,0,22.23,2.18,32.63,6.53,10.41,4.35,19.63,10.54,27.67,18.57,7.09,6.91,12.77,14.72,17.02,23.42,4.13,8.43,6.69,17.38,7.72,26.84Z"/><path class="d" d="M810.72,308.11c9.24,0,16.73,7.49,16.73,16.73v108.41c-.24,10.93-2.43,21.36-6.56,31.28-4.14,9.93-10.11,18.8-17.91,26.61-8.28,7.81-17.56,13.88-27.84,18.23-10.29,4.35-21.23,6.53-32.81,6.53h-.36c-11.59,0-22.52-2.18-32.81-6.53-10.28-4.35-19.56-10.42-27.84-18.23-7.8-7.81-13.78-16.68-17.91-26.61-4.14-9.92-6.33-20.35-6.56-31.28v-108.41c0-9.24,7.49-16.73,16.73-16.73h16.19c9.24,0,16.73,7.49,16.73,16.73v107.41c0,5.13,.95,9.92,2.84,14.38,1.89,4.47,4.44,8.37,7.63,11.71,3.19,3.35,6.97,5.97,11.35,7.87,4.37,1.9,9.04,2.84,14.01,2.84s9.57-.94,13.83-2.84c4.26-1.9,7.98-4.52,11.17-7.87,3.19-3.34,5.73-7.24,7.63-11.71,1.89-4.46,2.84-9.25,2.84-14.38v-107.41c0-9.24,7.49-16.73,16.73-16.73h16.19Z"/><path class="d" d="M983.71,515.23h-14.18c-6.4,0-12.24-3.65-15.04-9.4l-33.73-69.23h-.35v61.9c0,9.24-7.49,16.73-16.73,16.73h-16.2c-9.24,0-16.73-7.49-16.73-16.73v-174c0-9.24,7.49-16.73,16.73-16.73h50.31c9.45,0,18.32,1.67,26.6,5.02,8.27,3.35,15.48,7.98,21.63,13.89s11.06,12.77,14.72,20.58c3.67,7.81,5.5,16.17,5.5,25.09,0,12.72-3.43,24.15-10.28,34.3-4.29,6.34-9.45,11.71-15.49,16.09-6.52,4.73-8.53,13.57-4.99,20.8l23.26,47.61c5.43,11.11-2.66,24.07-15.03,24.07Z"/><path class="d" d="M1282.6,426.72c3.55,7.7,5.32,15.9,5.32,24.6,0,6.25-.95,12.6-2.84,19.07-2.12,6.47-5.26,12.5-9.4,18.07-4.14,5.58-9.04,10.37-14.71,14.39-5.68,4.01-12.01,7.14-18.98,9.37-6.98,2.23-14.25,3.34-21.81,3.34-9.46,0-18.33-1.67-26.6-5.02-8.28-3.34-15.49-7.91-21.64-13.72-6.15-5.79-11-12.6-14.54-20.41-.34-.75-.67-1.51-.98-2.27-4.43-10.92,3.81-22.82,15.59-22.82h17.63c5.96,0,11.29,3.35,14.3,8.5,.81,1.39,1.85,2.69,3.12,3.88,3.55,3.34,7.92,5.02,13.13,5.02,4.01,0,7.62-1.12,10.81-3.35,2.57-1.79,4.49-4.02,5.76-6.68,.56-1.17,.91-2.42,1.14-3.7,.25-1.41,.38-2.53,.38-3.35,0-4.9-1.78-8.87-5.32-11.88-3.55-3.01-7.81-4.51-12.77-4.51-9.46,0-18.27-1.62-26.43-4.86-8.15-3.23-15.31-7.69-21.46-13.38-6.15-5.69-11.05-12.32-14.71-19.91-3.67-7.58-5.5-15.84-5.5-24.76,0-6.69,1.06-13.05,3.19-19.07,2.13-6.47,5.26-12.49,9.4-18.07,4.13-5.57,9.04-10.37,14.72-14.39,5.67-4.01,12-7.13,18.97-9.37,6.98-2.22,14.25-3.34,21.82-3.34,9.22,0,17.96,1.67,26.24,5.02,8.28,3.34,15.49,7.97,21.64,13.88,6.14,5.92,10.99,12.77,14.54,20.58,.21,.46,.41,.91,.6,1.37,4.71,11.08-3.32,23.39-15.36,23.39h-17.39c-5.98,0-11.37-3.28-14.5-8.38-.8-1.3-1.8-2.52-3.01-3.67-3.55-3.34-7.81-5.01-12.77-5.01-4.03,0-7.69,1.11-11,3.34-2.34,1.57-4.15,3.49-5.42,5.73-.89,1.57-1.43,3.33-1.73,5.11-.2,1.2-.3,2.16-.3,2.88,0,4.68,1.78,8.53,5.32,11.54,3.55,3.02,7.92,4.52,13.13,4.52,9.22,0,17.96,1.62,26.24,4.85,8.28,3.24,15.49,7.7,21.64,13.39,6.14,5.69,10.99,12.38,14.54,20.07Z"/><path class="d" d="M1481.94,515.23h-16.2c-9.24,0-16.73-7.49-16.73-16.73v-46.85c0-9.24-7.49-16.73-16.73-16.73h-25.42c-9.24,0-16.73,7.49-16.73,16.73v46.85c0,9.24-7.49,16.73-16.73,16.73h-16.19c-9.24,0-16.73-7.49-16.73-16.73v-174c0-9.24,7.49-16.73,16.73-16.73h16.19c9.24,0,16.73,7.49,16.73,16.73v46.85c0,9.24,7.49,16.73,16.73,16.73h25.42c9.24,0,16.73-7.49,16.73-16.73v-46.85c0-9.24,7.49-16.73,16.73-16.73h16.2c9.24,0,16.73,7.49,16.73,16.73v174c0,9.24-7.49,16.73-16.73,16.73Z"/></g><rect class="d" x="1546.6" y="467.62" width="49.53" height="49.53" rx="16.73" ry="16.73"/></g></g></svg>