<svg xmlns="http://www.w3.org/2000/svg" viewBox="0 0 38.83 19.41"><defs><style>.cls-1{fill:#ea5455;}</style></defs><g id="Layer_2" data-name="Layer 2"><g id="Layer_1-2" data-name="Layer 1"><path class="cls-1" d="M38.83,16.5v1.94a1,1,0,0,1-1,1h-1a9,9,0,0,1-5.83-1.93,9,9,0,0,1-5.82,1.93,9,9,0,0,1-5.83-1.93,9,9,0,0,1-5.82,1.93,9,9,0,0,1-5.82-1.93,9.1,9.1,0,0,1-5.83,1.93H1a1,1,0,0,1-1-1V16.5a1,1,0,0,1,1-1h1a5.07,5.07,0,0,0,3.4-1.09,2.92,2.92,0,0,1,1.93-.85h1a2.92,2.92,0,0,1,1.93.85,5.07,5.07,0,0,0,3.4,1.09A5.07,5.07,0,0,0,17,14.44a2.9,2.9,0,0,1,1.93-.85h1a2.9,2.9,0,0,1,1.92.85,5.12,5.12,0,0,0,3.41,1.09,5.07,5.07,0,0,0,3.4-1.09,2.9,2.9,0,0,1,1.93-.85h1a2.9,2.9,0,0,1,1.92.85,5.12,5.12,0,0,0,3.41,1.09h1A1,1,0,0,1,38.83,16.5ZM1.94,4.85A4.86,4.86,0,1,1,6.79,9.71,4.85,4.85,0,0,1,1.94,4.85Zm8.6,7.47L14.7,6.37a6.86,6.86,0,0,1,1.63-1.64l4.85-3.47A6.83,6.83,0,0,1,26.55.15l6.09,1.31a2.91,2.91,0,1,1-1.22,5.69l-6.09-1.3a1,1,0,0,0-.76.15l-1.1.79,6.85,4.88a4.91,4.91,0,0,0-3,1.35,3.28,3.28,0,0,1-2.08.57A3.34,3.34,0,0,1,23.15,13a4.75,4.75,0,0,0-3.24-1.37h-1A4.75,4.75,0,0,0,15.68,13a3.34,3.34,0,0,1-2.09.57A3.34,3.34,0,0,1,11.5,13,5.22,5.22,0,0,0,10.54,12.32Z"/></g></g></svg>