<svg xmlns="http://www.w3.org/2000/svg" viewBox="0 0 34.94 31.06"><defs><style>.cls-1{fill:#00b8a9;}</style></defs><g id="Layer_2" data-name="Layer 2"><g id="Layer_1-2" data-name="Layer 1"><path class="cls-1" d="M16.5,3.88V26.69A4.36,4.36,0,0,1,8,28.08a4.32,4.32,0,0,1-5.1-4.3A4,4,0,0,1,3,22.93a4.84,4.84,0,0,1-.55-8.68A4.8,4.8,0,0,1,5,7.64a3.35,3.35,0,0,1-.11-.85A3.89,3.89,0,0,1,8.74,2.91h.13a3.87,3.87,0,0,1,7.63,1ZM32,22.93a4.8,4.8,0,0,1,.08.85,4.36,4.36,0,0,1-4.37,4.37,4.28,4.28,0,0,1-.72-.07,4.36,4.36,0,0,1-8.5-1.39V3.88a3.88,3.88,0,0,1,7.64-1h.13A3.86,3.86,0,0,1,30,7.64a4.83,4.83,0,0,1,2.51,6.61A4.84,4.84,0,0,1,32,22.93Z"/></g></g></svg>