<?xml version="1.0" encoding="utf-8"?>
<!-- Generator: Adobe Illustrator 26.2.1, SVG Export Plug-In . SVG Version: 6.00 Build 0)  -->
<svg version="1.1" id="Layer_1" xmlns="http://www.w3.org/2000/svg" xmlns:xlink="http://www.w3.org/1999/xlink" x="0px" y="0px"
	 viewBox="0 0 566.9 530.1" style="enable-background:new 0 0 566.9 530.1;" xml:space="preserve">
<style type="text/css">
	.st0{fill:#422920;}
	.st1{fill:#FFC68A;stroke:#FFFFFF;stroke-width:5;stroke-miterlimit:10;}
	.st2{opacity:0.5;fill:#999999;enable-background:new    ;}
	.st3{fill:#FFDDB9;}
	.st4{fill:#FFF4E8;}
	.st5{fill:#FFC68A;}
	.st6{fill:#FFFFFF;}
	.st7{fill:#FFD1A1;}
	.st8{fill:#FFE8D0;}
</style>
<circle class="st0" cx="283" cy="265.5" r="188.5"/>
<g id="a">
</g>
<g id="b">
</g>
<g>
	<circle class="st1" cx="283.4" cy="265.1" r="154.1"/>
	<path class="st2" d="M177.6,385c-74.1-67.1-74.1-175.9,0-242.9c37-33.5,133.9,44.2,133.9,121.7S214.6,418.5,177.6,385L177.6,385z"
		/>
</g>
<g>
	<path class="st3" d="M280.5,18.3h5.9c1.5,0,2.7,1.2,2.7,2.7v44.8c0,1.5-1.2,2.7-2.7,2.7h-5.9c-1.5,0-2.7-1.2-2.7-2.7V21
		C277.8,19.5,279,18.3,280.5,18.3z"/>
</g>
<path class="st4" d="M530.2,262.1v5.9c0,1.5-1.2,2.7-2.7,2.7h-44.8c-1.5,0-2.7-1.2-2.7-2.7v-5.9c0-1.5,1.2-2.7,2.7-2.7h44.8
	C529,259.4,530.2,260.6,530.2,262.1z"/>
<path class="st5" d="M86.8,262.1v5.9c0,1.5-1.2,2.7-2.7,2.7H39.4c-1.5,0-2.7-1.2-2.7-2.7v-5.9c0-1.5,1.2-2.7,2.7-2.7h44.8
	C85.6,259.4,86.8,260.6,86.8,262.1z"/>
<path class="st6" d="M478.9,454.4l-6.2,6.2c-1.6,1.6-4.1,1.6-5.6,0l-46.5-46.5c-1.6-1.6-1.6-4.1,0-5.6l6.2-6.2
	c1.6-1.6,4.1-1.6,5.6,0l46.5,46.5C480.4,450.3,480.4,452.8,478.9,454.4z"/>
<path class="st7" d="M146.1,121.7l-6.1,6.1c-1.6,1.6-4.1,1.6-5.6,0L88,81.4c-1.6-1.6-1.6-4.1,0-5.6l6.1-6.1c1.6-1.6,4.1-1.6,5.6,0
	l46.4,46.4C147.7,117.6,147.7,120.1,146.1,121.7z"/>
<path class="st5" d="M111.1,441.6l-4.2-4.2c-1.1-1.1-1.1-2.8,0-3.8l31.7-31.7c1.1-1.1,2.8-1.1,3.8,0l4.2,4.2c1.1,1.1,1.1,2.8,0,3.8
	l-31.7,31.7C113.8,442.7,112.1,442.7,111.1,441.6z"/>
<path class="st8" d="M424.5,128.2l-4.2-4.2c-1.1-1.1-1.1-2.8,0-3.8L452,88.5c1.1-1.1,2.8-1.1,3.8,0l4.2,4.2c1.1,1.1,1.1,2.8,0,3.8
	l-31.7,31.7C427.3,129.2,425.6,129.2,424.5,128.2z"/>
</svg>
