<?xml version="1.0" encoding="utf-8"?>
<!-- Generator: Adobe Illustrator 26.2.1, SVG Export Plug-In . SVG Version: 6.00 Build 0)  -->
<svg version="1.1" id="Layer_1" xmlns="http://www.w3.org/2000/svg" xmlns:xlink="http://www.w3.org/1999/xlink" x="0px" y="0px"
	 viewBox="0 0 227.6 227.7" style="enable-background:new 0 0 227.6 227.7;" xml:space="preserve">
<style type="text/css">
	.st0{fill:#FFD8A4;}
	.st1{fill:#FFFFFF;}
	.st2{fill:#FFC68A;}
	.st3{fill:#E0AD67;}
</style>
<g id="a">
</g>
<g id="b">
</g>
<g>
	<path class="st0" d="M154.2,219c-4.1,0-8.3-0.4-12.4-1.2c-14.9-3-27.9-12.3-35.7-25.7L10.6,28.6c-3-5.1-2.1-11.6,2-15.9
		c2.5-2.5,5.8-3.9,9.4-3.9c2.3,0,4.6,0.6,6.6,1.8L192,106.2c13.3,7.8,22.6,20.7,25.6,35.5c4.4,21.3-2.2,43.2-17.5,58.5
		C187.9,212.3,171.6,219,154.2,219C154.2,219,154.2,219,154.2,219z"/>
	<path class="st1" d="M21.9,10.8c1.9,0,3.9,0.5,5.6,1.5L191,107.9c12.7,7.4,21.7,19.7,24.6,34.1c4.1,19.9-1.7,41.5-16.9,56.7
		c-12.1,12.1-28.2,18.2-44.4,18.2c-4,0-8-0.4-12-1.1c-14.4-2.9-26.9-12-34.3-24.7L12.3,27.6c-2.5-4.3-1.8-9.9,1.7-13.5
		C16.1,11.9,19,10.8,21.9,10.8 M21.9,6.8c-4.1,0-8,1.6-10.8,4.5c-4.8,4.9-5.7,12.4-2.3,18.3l95.6,163.6c8.1,13.8,21.6,23.5,37,26.6
		c4.2,0.8,8.5,1.2,12.8,1.2c18,0,34.7-6.9,47.3-19.4c15.8-15.8,22.5-38.3,18-60.3c-3.1-15.3-12.8-28.7-26.5-36.8L29.6,8.8
		C27.3,7.5,24.6,6.8,21.9,6.8L21.9,6.8z"/>
</g>
<g>
	<path class="st2" d="M14.1,13.3c-3.5,3.6-4.3,9.1-1.7,13.5L108,190.3c7.4,12.7,19.9,21.8,34.3,24.7c5,1,10.1,1.4,15,1.1
		c6.9-0.4-17.2-64.7-51.1-110.5C66.1,51,14.1,13.3,14.1,13.3L14.1,13.3z"/>
	<path class="st3" d="M14.1,13.3c-3.9,4-4,10.3-0.7,14.7c0,0,8.4,13.8,8.4,13.8c10.5,17.3,39.1,65.2,49.8,83.3
		c12.4,20.8,24.7,41.8,37.1,62.6c9.8,17.8,28.3,27.7,48.5,26.4c0.1,0,0.1,0,0,0c-0.3,0-0.7,0.3-0.8,0.5c0.4-3.1-0.7-6.3-1.4-9.4
		C130.7,127.7,77.1,63.1,14.1,13.3L14.1,13.3z M14.1,13.3c34.9,25.5,66.2,55.9,92.5,90.2c19.5,26,35,54.9,47,85.1
		c2.1,5.8,8.9,22.7,6.4,27.9c-0.5,1-1.6,1.7-2.7,1.6c0,0-0.3,0-0.3,0s-0.5,0-0.5,0c-6.6,0.2-13.2-0.5-19.6-2.5
		c-13.4-4.1-24.8-13.8-31.5-26c-12.1-21-24.4-42-36.4-63c-10.5-18.3-38.1-66.4-48.1-84.3c0,0-8-14.1-8-14.1
		C9.7,23.8,10,17.2,14.1,13.3L14.1,13.3z"/>
</g>
</svg>
