<?xml version="1.0" encoding="utf-8"?>
<!-- Generator: Adobe Illustrator 26.2.1, SVG Export Plug-In . SVG Version: 6.00 Build 0)  -->
<svg version="1.1" id="Layer_1" xmlns="http://www.w3.org/2000/svg" xmlns:xlink="http://www.w3.org/1999/xlink" x="0px" y="0px"
	 viewBox="0 0 576 615.6" style="enable-background:new 0 0 576 615.6;" xml:space="preserve">
<style type="text/css">
	.st0{fill:#F8F3D4;}
	.st1{fill:#393E46;stroke:#FFFFFF;stroke-width:5;stroke-miterlimit:10;}
	.st2{opacity:0.5;enable-background:new    ;}
	.st3{fill:#222831;}
	.st4{fill:none;}
</style>
<g>
	<circle class="st0" cx="246.3" cy="419.3" r="188.5"/>
	<g id="a">
	</g>
	<g id="b">
	</g>
	<g>
		<circle class="st1" cx="240" cy="420.6" r="154.2"/>
		<path class="st2" d="M269.5,263.3C367.6,283,423.3,376.5,394,472.1c-14.6,47.8-137.7,30.6-177.5-36S220.5,253.4,269.5,263.3
			L269.5,263.3z"/>
	</g>
	<g>
		<path class="st3" d="M243.8,172.1h5.9c1.5,0,2.7,1.2,2.7,2.7v44.8c0,1.5-1.2,2.7-2.7,2.7h-5.9c-1.5,0-2.7-1.2-2.7-2.7v-44.8
			C241.1,173.3,242.3,172.1,243.8,172.1z"/>
	</g>
	<path class="st3" d="M493.5,415.9v5.9c0,1.5-1.2,2.7-2.7,2.7H446c-1.5,0-2.7-1.2-2.7-2.7v-5.9c0-1.5,1.2-2.7,2.7-2.7h44.8
		C492.3,413.2,493.5,414.4,493.5,415.9z"/>
	<path class="st3" d="M50.1,415.9v5.9c0,1.5-1.2,2.7-2.7,2.7H2.7c-1.5,0-2.7-1.2-2.7-2.7v-5.9c0-1.5,1.2-2.7,2.7-2.7h44.8
		C48.9,413.2,50.1,414.4,50.1,415.9z"/>
	<path class="st3" d="M442.2,608.2l-6.2,6.2c-1.6,1.6-4.1,1.6-5.6,0l-46.5-46.5c-1.6-1.6-1.6-4.1,0-5.6l6.2-6.2
		c1.6-1.6,4.1-1.6,5.6,0l46.5,46.5C443.7,604.1,443.7,606.6,442.2,608.2z"/>
	<path class="st3" d="M109.4,275.5l-6.1,6.1c-1.6,1.6-4.1,1.6-5.6,0l-46.4-46.4c-1.6-1.6-1.6-4.1,0-5.6l6.1-6.1
		c1.6-1.6,4.1-1.6,5.6,0l46.4,46.4C111,271.4,111,273.9,109.4,275.5z"/>
	<path class="st3" d="M74.4,595.4l-4.2-4.2c-1.1-1.1-1.1-2.8,0-3.8l31.7-31.7c1.1-1.1,2.8-1.1,3.8,0l4.2,4.2c1.1,1.1,1.1,2.8,0,3.8
		l-31.7,31.7C77.1,596.5,75.4,596.5,74.4,595.4z"/>
	<path class="st3" d="M387.8,282l-4.2-4.2c-1.1-1.1-1.1-2.8,0-3.8l31.7-31.7c1.1-1.1,2.8-1.1,3.8,0l4.2,4.2c1.1,1.1,1.1,2.8,0,3.8
		L391.6,282C390.6,283,388.9,283,387.8,282z"/>
	<rect x="223.9" y="230.8" class="st4" width="50.9" height="6.3"/>
</g>
<g>
	<g>
		<g>
			<path class="st3" d="M179.1,23.7L164.8,25l-1.1-12.5L206,8.8l1.1,12.5l-14.3,1.3l6.6,74.7l-13.7,1.2L179.1,23.7z"/>
			<path class="st3" d="M230.5,75.4L237,9l13.7,1.3l-6.6,67.4c-0.6,6.2,1.8,8.7,6.1,9.1c4.4,0.4,7.2-1.6,7.8-7.8l6.6-67.3l13.2,1.3
				l-6.5,66.4c-1.4,13.9-9.1,21.2-22.5,19.9C235.3,98,229.2,89.4,230.5,75.4z"/>
			<path class="st3" d="M312.4,19.7l16.5,5l-2.3,54l0.2,0.1l15.1-50.2l11.7,3.5l-25.2,83.8l-13.5-4.1l2.6-65.9l-0.2-0.1L298.9,107
				l-11.7-3.5L312.4,19.7z"/>
			<path class="st3" d="M386,45.6l33.3,17.2l-5.7,11.1L392.5,63l-10.6,20.6l16.8,8.7l-5.7,11.1l-16.8-8.7l-12.3,23.9l21.1,10.9
				l-5.7,11.1L346,123.4L386,45.6z"/>
			<path class="st3" d="M475.3,102.5l10.4,9l-57.3,66.1l-10.4-9L475.3,102.5z"/>
			<path class="st3" d="M509.7,134.1l11.2,13.2l-31.3,44.1l0.2,0.2l40-33.9l7.9,9.3l-66.8,56.6l-9.1-10.8l38.1-53.9l-0.2-0.2
				L451,200l-7.9-9.3L509.7,134.1z"/>
			<path class="st3" d="M493.3,234.3l6.9,11.3l-11.3,6.9l-6.9-11.3L493.3,234.3z M525.5,214.6l31.2-18.9l7.1,11.8l-31.2,18.9
				l-24.8,12.9l-5.3-8.8L525.5,214.6z"/>
		</g>
	</g>
</g>
</svg>
