<svg xmlns="http://www.w3.org/2000/svg" xmlns:xlink="http://www.w3.org/1999/xlink" viewBox="0 0 474.88 470.67"><defs><style>.cls-1{fill:url(#radial-gradient);}.cls-2{fill:url(#radial-gradient-2);}.cls-3{fill:url(#radial-gradient-3);}.cls-4{fill:url(#radial-gradient-4);}.cls-5{fill:url(#radial-gradient-5);}.cls-6{fill:url(#radial-gradient-6);}</style><radialGradient id="radial-gradient" cx="178.43" cy="196" r="68.16" gradientTransform="translate(0 -166.52) scale(1.33 1.35)" gradientUnits="userSpaceOnUse"><stop offset="0" stop-color="#ea5455"/><stop offset="0.45" stop-color="#ea5755"/><stop offset="0.81" stop-color="#ea6155"/><stop offset="1" stop-color="#ea6a55"/></radialGradient><radialGradient id="radial-gradient-2" cx="72.56" cy="269.06" r="68.04" gradientTransform="translate(0 -166.52) scale(1.33 1.35)" gradientUnits="userSpaceOnUse"><stop offset="0" stop-color="#ffd460"/><stop offset="0.4" stop-color="#ffd563"/><stop offset="0.72" stop-color="#ffd96d"/><stop offset="1" stop-color="#ffde7d"/></radialGradient><radialGradient id="radial-gradient-3" cx="285.09" cy="269.06" r="68" gradientTransform="translate(0 -166.52) scale(1.33 1.35)" gradientUnits="userSpaceOnUse"><stop offset="0" stop-color="#f07b3f"/><stop offset="0.44" stop-color="#f07e3f"/><stop offset="0.73" stop-color="#f0873f"/><stop offset="0.98" stop-color="#f0963f"/><stop offset="1" stop-color="#f0973f"/></radialGradient><radialGradient id="radial-gradient-4" cx="106.83" cy="399.68" r="68.74" gradientTransform="translate(0 -166.52) scale(1.33 1.35)" gradientUnits="userSpaceOnUse"><stop offset="0" stop-color="#2d4059"/><stop offset="0.62" stop-color="#2e425d"/><stop offset="1" stop-color="#314663"/></radialGradient><radialGradient id="radial-gradient-5" cx="246.11" cy="399.68" r="68.73" gradientTransform="translate(0 -166.52) scale(1.33 1.35)" gradientUnits="userSpaceOnUse"><stop offset="0" stop-color="#00b8a9"/><stop offset="0.58" stop-color="#00b5ac"/><stop offset="1" stop-color="#00adb5"/></radialGradient><radialGradient id="radial-gradient-6" cx="173.88" cy="302" r="65" gradientTransform="translate(0 -166.52) scale(1.33 1.35)" gradientUnits="userSpaceOnUse"><stop offset="0" stop-color="#ffde7d"/><stop offset="0.26" stop-color="#ffdd7a"/><stop offset="0.43" stop-color="#ffda71"/><stop offset="0.58" stop-color="#ffd562"/><stop offset="0.71" stop-color="#ffce4d"/><stop offset="0.84" stop-color="#ffc531"/><stop offset="0.95" stop-color="#ffb910"/><stop offset="1" stop-color="#ffb400"/></radialGradient></defs><g id="Layer_2" data-name="Layer 2"><g id="Layer_1-2" data-name="Layer 1"><path class="cls-1" d="M317.19,98.83c-14.64,56.86-36,98.82-80.51,98.82s-65.87-42-80.5-98.82C142.32,45,179.18,0,236.68,0,298.37,0,331.05,45,317.19,98.83Z"/><path class="cls-2" d="M121.4,126.14c48.76,31.34,81.56,64.78,68.19,108s-59,51.46-116.6,48.61c-54.51-2.71-85.48-52.1-68.19-108C23.35,114.73,75.24,96.47,121.4,126.14Z"/><path class="cls-3" d="M401.42,282.39c-57.56,2.85-103.23-5.35-116.6-48.61s19.43-76.7,68.18-108c46.17-29.68,99.32-7.34,116.61,48.6C488.16,234.36,455.92,279.68,401.42,282.39Z"/><path class="cls-4" d="M82.58,324.19c44-38,85.09-59.86,121.52-33.85s30.36,72.92,10.38,128.06C195.56,470.61,140.07,485.9,93,452.25,42.43,416.16,41,360.18,82.58,324.19Z"/><path class="cls-5" d="M254.5,417.86c-20-55.14-26-102,10.38-128.06s77.56-4.16,121.52,33.85c41.62,36,36.72,94.41-10.38,128.06C325.49,487.8,273.42,470.07,254.5,417.86Z"/><ellipse class="cls-6" cx="230.75" cy="242.33" rx="86.26" ry="88"/></g></g></svg>