<svg xmlns="http://www.w3.org/2000/svg" viewBox="0 0 590.91 81.45"><defs><style>.cls-1{fill:#00b8a9;}.cls-2{fill:#f07b3f;}.cls-3{fill:#ffb400;}.cls-4{fill:#2d4059;}.cls-5{fill:#ea5455;}.cls-6{fill:#f7931e;}</style></defs><g id="Layer_2" data-name="Layer 2"><g id="Layer_1-2" data-name="Layer 1"><path class="cls-1" d="M430.8,6.74V46.37a7.57,7.57,0,0,1-14.75,2.4,7.49,7.49,0,0,1-1.27.13,7.58,7.58,0,0,1-7.58-7.59,8.18,8.18,0,0,1,.14-1.49,8.39,8.39,0,0,1-.95-15.06,8.35,8.35,0,0,1,4.36-11.48,6.06,6.06,0,0,1-.18-1.48,6.74,6.74,0,0,1,6.74-6.74l.23,0A6.73,6.73,0,0,1,430.8,6.74Zm26.83,33.08a7.38,7.38,0,0,1,.15,1.49,7.59,7.59,0,0,1-7.59,7.59,7.47,7.47,0,0,1-1.26-.13,7.57,7.57,0,0,1-14.76-2.4V6.74a6.73,6.73,0,0,1,13.26-1.66l.23,0a6.75,6.75,0,0,1,6.75,6.74,7.22,7.22,0,0,1-.18,1.48,8.42,8.42,0,0,1,5.23,7.8,8.31,8.31,0,0,1-.87,3.68,8.39,8.39,0,0,1-1,15.06Z"/><path class="cls-2" d="M322.34,28.51,302,49.56a3.31,3.31,0,0,1-4.78,0l-20.39-21A15.13,15.13,0,0,1,277.83,6.6c5.77-4.92,14.37-4,19.66,1.43l2.08,2.14L301.64,8c5.3-5.47,13.89-6.35,19.67-1.43A15.13,15.13,0,0,1,322.34,28.51Z"/><path class="cls-3" d="M193.62,25.29c0,12.11-12.08,21.92-27,21.92a32,32,0,0,1-11.31-2.05,24.09,24.09,0,0,1-14.82,5.42.83.83,0,0,1-.77-.5.84.84,0,0,1,.16-.92s4.46-4.79,5.77-10.09a19.48,19.48,0,0,1-6-13.78c0-12.11,12.07-21.92,27-21.92S193.62,13.18,193.62,25.29Z"/><path class="cls-4" d="M589.93,27A26.14,26.14,0,1,1,563.79.84,26.13,26.13,0,0,1,589.93,27Zm-7.64-5.06h1.94A21.09,21.09,0,0,0,567.17,6.2V8.48a1.64,1.64,0,0,1-1.64,1.64H563a1.66,1.66,0,0,0-1.36.72l-.85,1.28a1.62,1.62,0,0,1-1,.68l-1.52.38a1.63,1.63,0,0,0-1.24,1.58v.47a1.63,1.63,0,0,0,1.63,1.63h9.49a1.63,1.63,0,0,1,1.16.48l.73.73a1.6,1.6,0,0,0,1.15.48h1.06a1.63,1.63,0,0,1,.52,3.18l-5,1.66a1.6,1.6,0,0,1-1.25-.09L565,22.52a5.89,5.89,0,0,0-2.58-.6h-.09a5.8,5.8,0,0,0-3.46,1.15L556,25.25a5.75,5.75,0,0,0-2.3,4.6v1.49a5.74,5.74,0,0,0,5.75,5.75h2.73a1.64,1.64,0,0,1,1.63,1.64v3.15a8.25,8.25,0,0,0,.88,3.71,2.93,2.93,0,0,0,5.05.32l1.37-2.06a16.85,16.85,0,0,1,2.64-3.07,1.68,1.68,0,0,0,.5-.91l.45-2.4a1.73,1.73,0,0,1,.3-.68l2-2.63a1.59,1.59,0,0,0,.33-1V32a1.63,1.63,0,0,0-1.63-1.63h-.87a1.64,1.64,0,0,1-1.36-.73L572,27.53a1.62,1.62,0,0,1,.84-2.45l.28-.1a1.77,1.77,0,0,1,.52-.08,1.64,1.64,0,0,1,.9.27l1.92,1.28a1.6,1.6,0,0,0,.91.28,1.63,1.63,0,0,0,.73-.17l1.62-.82a1.63,1.63,0,0,0,.9-1.46v-.73A1.63,1.63,0,0,1,582.29,21.92Z"/><path class="cls-5" d="M67.44,38.78v3.37a1.69,1.69,0,0,1-1.68,1.69H64.07A15.69,15.69,0,0,1,54,40.48a15.69,15.69,0,0,1-10.11,3.36,15.67,15.67,0,0,1-10.12-3.36A15.7,15.7,0,0,1,23.6,43.84a15.64,15.64,0,0,1-10.11-3.36A15.72,15.72,0,0,1,3.37,43.84H1.69A1.69,1.69,0,0,1,0,42.15V38.78a1.69,1.69,0,0,1,1.69-1.69H3.37a8.86,8.86,0,0,0,5.91-1.88,5,5,0,0,1,3.35-1.49h1.72a5,5,0,0,1,3.34,1.49,8.9,8.9,0,0,0,5.91,1.88,8.86,8.86,0,0,0,5.91-1.88,5,5,0,0,1,3.35-1.49h1.72a5,5,0,0,1,3.35,1.49,8.86,8.86,0,0,0,5.91,1.88,8.9,8.9,0,0,0,5.91-1.88,5,5,0,0,1,3.34-1.49h1.72a5,5,0,0,1,3.35,1.49,8.88,8.88,0,0,0,5.91,1.88h1.69A1.69,1.69,0,0,1,67.44,38.78ZM3.37,18.55A8.43,8.43,0,1,1,11.8,27,8.43,8.43,0,0,1,3.37,18.55Zm14.94,13,7.23-10.33a11.7,11.7,0,0,1,2.82-2.84l8.43-6a11.8,11.8,0,0,1,9.33-1.93L56.7,12.65a5.06,5.06,0,0,1-2.12,9.89L44,20.27a1.71,1.71,0,0,0-1.33.28L40.78,21.9l11.89,8.49a8.43,8.43,0,0,0-5.21,2.34,5.79,5.79,0,0,1-3.62,1,5.83,5.83,0,0,1-3.63-1,8.26,8.26,0,0,0-5.63-2.38H32.86a8.28,8.28,0,0,0-5.63,2.38,5.81,5.81,0,0,1-3.63,1,5.79,5.79,0,0,1-3.62-1A9.49,9.49,0,0,0,18.31,31.51Z"/><path class="cls-5" d="M10,78.57A.61.61,0,0,1,9.33,78V69.83a.58.58,0,0,1,.18-.45A.59.59,0,0,1,10,69.2h2.4a3.14,3.14,0,0,1,1.6.4A2.79,2.79,0,0,1,15,70.7a3.23,3.23,0,0,1,.39,1.61A3.11,3.11,0,0,1,15,73.87,2.78,2.78,0,0,1,14,74.94a3.35,3.35,0,0,1-1.6.38H10.57V78a.58.58,0,0,1-.17.44A.61.61,0,0,1,10,78.57Zm.62-4.4h1.78a1.91,1.91,0,0,0,1-.24,1.74,1.74,0,0,0,.66-.66,1.9,1.9,0,0,0,.24-1,2.07,2.07,0,0,0-.24-1,1.69,1.69,0,0,0-.66-.69,1.83,1.83,0,0,0-1-.26H10.57Z"/><path class="cls-5" d="M17.29,76.19a.57.57,0,0,1-.43-.18.57.57,0,0,1-.18-.44V69.81a.57.57,0,0,1,.18-.44.6.6,0,0,1,.43-.17.61.61,0,0,1,.45.17.6.6,0,0,1,.17.44v5.76a.6.6,0,0,1-.17.44A.58.58,0,0,1,17.29,76.19Zm0,2.4a.57.57,0,0,1-.43-.18.57.57,0,0,1-.18-.44V72.62a.57.57,0,0,1,.18-.44.6.6,0,0,1,.43-.17.61.61,0,0,1,.45.17.6.6,0,0,1,.17.44V78a.6.6,0,0,1-.17.44A.58.58,0,0,1,17.29,78.59Zm4.94,0a.61.61,0,0,1-.62-.62V75a2.15,2.15,0,0,0-.25-1.11,1.58,1.58,0,0,0-.68-.65,2.16,2.16,0,0,0-1-.21,2,2,0,0,0-.92.21,1.7,1.7,0,0,0-.64.54,1.34,1.34,0,0,0-.24.79h-.76a2.49,2.49,0,0,1,.37-1.35,2.52,2.52,0,0,1,1-.94A2.94,2.94,0,0,1,20,72a3.14,3.14,0,0,1,1.48.35,2.64,2.64,0,0,1,1,1A3.48,3.48,0,0,1,22.84,75v3a.57.57,0,0,1-.18.44A.57.57,0,0,1,22.23,78.59Z"/><path class="cls-5" d="M27.47,78.31a.58.58,0,0,1-.43,0,.62.62,0,0,1-.31-.31L24,72.8a.49.49,0,0,1,0-.44.53.53,0,0,1,.32-.3.54.54,0,0,1,.43,0,.55.55,0,0,1,.31.31l2.63,5.22a.69.69,0,0,1,.09.43A.39.39,0,0,1,27.47,78.31Zm-1.42,3.14a.67.67,0,0,1-.28-.07.49.49,0,0,1-.29-.75l3.66-8.27a.52.52,0,0,1,.75-.29.5.5,0,0,1,.3.76l-3.67,8.25A.48.48,0,0,1,26.05,81.45Z"/><path class="cls-5" d="M33.73,78.62a4.35,4.35,0,0,1-1.55-.26,2.94,2.94,0,0,1-1.11-.65.52.52,0,0,1-.15-.44.59.59,0,0,1,.23-.4.62.62,0,0,1,.48-.16.65.65,0,0,1,.4.21,1.92,1.92,0,0,0,.65.42,2.37,2.37,0,0,0,1,.2,2,2,0,0,0,1.06-.23.71.71,0,0,0,.38-.58.77.77,0,0,0-.35-.63,3.26,3.26,0,0,0-1.29-.43A3.77,3.77,0,0,1,31.74,75a1.49,1.49,0,0,1-.55-1.18,1.47,1.47,0,0,1,.36-1,2.17,2.17,0,0,1,.92-.6,3.61,3.61,0,0,1,1.18-.2,3.76,3.76,0,0,1,1.4.25,2.4,2.4,0,0,1,1,.7.55.55,0,0,1,.15.4.48.48,0,0,1-.2.36.64.64,0,0,1-.46.08.8.8,0,0,1-.44-.22,1.64,1.64,0,0,0-.65-.39,2.76,2.76,0,0,0-.8-.11,2,2,0,0,0-.9.18.57.57,0,0,0-.36.53.68.68,0,0,0,.11.39,1,1,0,0,0,.45.31,6,6,0,0,0,1,.27,5.22,5.22,0,0,1,1.43.46,1.93,1.93,0,0,1,.75.64,1.55,1.55,0,0,1,.22.84,1.75,1.75,0,0,1-.29,1,2,2,0,0,1-.86.71A3.51,3.51,0,0,1,33.73,78.62Z"/><path class="cls-5" d="M38.59,70.94a.8.8,0,1,1,.56-.23A.76.76,0,0,1,38.59,70.94Zm0,7.63a.56.56,0,0,1-.43-.17A.59.59,0,0,1,38,78V72.62a.57.57,0,0,1,.18-.44.6.6,0,0,1,.43-.17.61.61,0,0,1,.45.17.6.6,0,0,1,.17.44V78a.62.62,0,0,1-.17.44A.57.57,0,0,1,38.59,78.57Z"/><path class="cls-5" d="M44.46,78.62a3.25,3.25,0,0,1-1.71-.44A3.08,3.08,0,0,1,41.58,77a3.33,3.33,0,0,1-.43-1.7,3.49,3.49,0,0,1,.42-1.73,3,3,0,0,1,1.15-1.18A3.23,3.23,0,0,1,44.4,72,3,3,0,0,1,46.75,73a.4.4,0,0,1,.12.4.67.67,0,0,1-.26.36.49.49,0,0,1-.37.08.73.73,0,0,1-.37-.21A1.94,1.94,0,0,0,44.4,73a2.12,2.12,0,0,0-1.08.28,2,2,0,0,0-.73.79,2.49,2.49,0,0,0-.26,1.19,2.41,2.41,0,0,0,.27,1.15,2.06,2.06,0,0,0,.75.8,2.14,2.14,0,0,0,1.11.29,2.37,2.37,0,0,0,.74-.1,1.65,1.65,0,0,0,.58-.32.74.74,0,0,1,.4-.17.48.48,0,0,1,.36.11.62.62,0,0,1,.23.38.48.48,0,0,1-.15.38A3.05,3.05,0,0,1,44.46,78.62Z"/><path class="cls-5" d="M51.43,78.62a2.84,2.84,0,0,1-1.57-.44A3.13,3.13,0,0,1,48.76,77a3.64,3.64,0,0,1-.4-1.7,3.4,3.4,0,0,1,.44-1.71A3.23,3.23,0,0,1,50,72.4,3.29,3.29,0,0,1,51.67,72a3.24,3.24,0,0,1,1.68.44,3.31,3.31,0,0,1,1.19,1.19A3.39,3.39,0,0,1,55,75.3h-.46A3.53,3.53,0,0,1,54.1,77,3,3,0,0,1,53,78.18,2.85,2.85,0,0,1,51.43,78.62Zm.24-1.08a2.12,2.12,0,0,0,1.1-.29,2.09,2.09,0,0,0,.75-.81,2.29,2.29,0,0,0,.28-1.14,2.34,2.34,0,0,0-.28-1.16,2,2,0,0,0-.75-.8,2,2,0,0,0-1.1-.3,2,2,0,0,0-1.08.3,2,2,0,0,0-.77.8,2.34,2.34,0,0,0-.28,1.16,2.29,2.29,0,0,0,.28,1.14,2.14,2.14,0,0,0,.77.81A2.08,2.08,0,0,0,51.67,77.54Zm2.69,1a.6.6,0,0,1-.61-.62V76.14L54,74.87l1,.43V78a.57.57,0,0,1-.17.44A.59.59,0,0,1,54.36,78.59Z"/><path class="cls-5" d="M58.36,78.57a1.58,1.58,0,0,1-.94-.28,2,2,0,0,1-.63-.79,2.6,2.6,0,0,1-.23-1.15V69.8a.56.56,0,0,1,.17-.43.58.58,0,0,1,.43-.17.58.58,0,0,1,.6.6v6.55a1.4,1.4,0,0,0,.17.74.48.48,0,0,0,.43.28h.3a.51.51,0,0,1,.39.17.63.63,0,0,1,.15.43.54.54,0,0,1-.23.44,1,1,0,0,1-.59.16Z"/><path class="cls-6" d="M151.37,78.69a4.43,4.43,0,0,1-1.46-.24,3.74,3.74,0,0,1-1.21-.67,2.64,2.64,0,0,1-.76-1,.46.46,0,0,1,0-.47.57.57,0,0,1,.42-.28.59.59,0,0,1,.43.07.71.71,0,0,1,.32.34,1.49,1.49,0,0,0,.47.55,2.62,2.62,0,0,0,.8.41,3.19,3.19,0,0,0,1,.16,3.08,3.08,0,0,0,1.07-.18,1.9,1.9,0,0,0,.78-.53,1.22,1.22,0,0,0,.3-.84,1.53,1.53,0,0,0-.5-1.14,2.59,2.59,0,0,0-1.63-.63,4,4,0,0,1-2.34-.87,2.3,2.3,0,0,1-.86-1.81,2.07,2.07,0,0,1,.45-1.35,2.72,2.72,0,0,1,1.2-.84,4.85,4.85,0,0,1,1.7-.29,3.54,3.54,0,0,1,1.28.21,2.91,2.91,0,0,1,1,.56,3.65,3.65,0,0,1,.71.85.78.78,0,0,1,.14.5.51.51,0,0,1-.23.37.62.62,0,0,1-.5.06.71.71,0,0,1-.39-.31,2.15,2.15,0,0,0-.47-.59,2,2,0,0,0-.65-.38,2.56,2.56,0,0,0-.87-.14,2.84,2.84,0,0,0-1.49.33,1.13,1.13,0,0,0-.6,1,1.42,1.42,0,0,0,.18.69,1.56,1.56,0,0,0,.69.57,4.6,4.6,0,0,0,1.43.34,3.71,3.71,0,0,1,2.23.87,2.46,2.46,0,0,1,.8,1.91,2.38,2.38,0,0,1-.29,1.19,2.55,2.55,0,0,1-.75.85,3.84,3.84,0,0,1-1.08.51A4.78,4.78,0,0,1,151.37,78.69Z"/><path class="cls-6" d="M159.51,78.62a3.45,3.45,0,0,1-1.72-.42A3.23,3.23,0,0,1,156.62,77a3.45,3.45,0,0,1-.42-1.72,3.5,3.5,0,0,1,.42-1.74,3.13,3.13,0,0,1,1.17-1.17,3.35,3.35,0,0,1,1.72-.43,3.28,3.28,0,0,1,1.7.43,3,3,0,0,1,1.17,1.17,3.4,3.4,0,0,1,.43,1.74,3.45,3.45,0,0,1-.42,1.72,3.13,3.13,0,0,1-1.16,1.18A3.45,3.45,0,0,1,159.51,78.62Zm0-1.08a2,2,0,0,0,1.1-.29,2,2,0,0,0,.75-.79,2.39,2.39,0,0,0,.27-1.16,2.46,2.46,0,0,0-.27-1.17,2,2,0,0,0-.75-.8,2.23,2.23,0,0,0-2.2,0,2,2,0,0,0-.76.8,2.47,2.47,0,0,0-.28,1.17,2.4,2.4,0,0,0,.28,1.16,2.07,2.07,0,0,0,1.86,1.08Z"/><path class="cls-6" d="M167.61,78.62a3.25,3.25,0,0,1-1.71-.44A3.18,3.18,0,0,1,164.72,77a3.43,3.43,0,0,1-.42-1.7,3.49,3.49,0,0,1,.42-1.73,3,3,0,0,1,1.15-1.18,3.23,3.23,0,0,1,1.68-.43A3,3,0,0,1,169.9,73a.45.45,0,0,1,.12.4.67.67,0,0,1-.26.36.49.49,0,0,1-.37.08.8.8,0,0,1-.38-.21,1.92,1.92,0,0,0-1.46-.63,2.12,2.12,0,0,0-1.08.28,1.92,1.92,0,0,0-.73.79,2.49,2.49,0,0,0-.27,1.19,2.41,2.41,0,0,0,.27,1.15,2.06,2.06,0,0,0,.75.8,2.17,2.17,0,0,0,1.12.29,2.37,2.37,0,0,0,.74-.1,1.75,1.75,0,0,0,.58-.32.74.74,0,0,1,.4-.17.48.48,0,0,1,.36.11.56.56,0,0,1,.22.38.44.44,0,0,1-.14.38A3.09,3.09,0,0,1,167.61,78.62Z"/><path class="cls-6" d="M172.58,70.94a.79.79,0,0,1-.56-.23.8.8,0,0,1,0-1.12.79.79,0,0,1,.56-.23.8.8,0,0,1,.56.23.8.8,0,0,1,0,1.12A.8.8,0,0,1,172.58,70.94Zm0,7.63A.58.58,0,0,1,172,78V72.62a.57.57,0,0,1,.17-.44.62.62,0,0,1,.44-.17.58.58,0,0,1,.61.61V78a.62.62,0,0,1-.17.44A.57.57,0,0,1,172.58,78.57Z"/><path class="cls-6" d="M178.21,78.62a2.85,2.85,0,0,1-1.58-.44A3,3,0,0,1,175.54,77a3.53,3.53,0,0,1-.41-1.7,3.4,3.4,0,0,1,.44-1.71,3.23,3.23,0,0,1,1.19-1.19,3.31,3.31,0,0,1,4.55,1.19,3.4,3.4,0,0,1,.44,1.71h-.47a3.64,3.64,0,0,1-.4,1.7,3.13,3.13,0,0,1-1.1,1.18A2.84,2.84,0,0,1,178.21,78.62Zm.24-1.08a2.11,2.11,0,0,0,1.09-.29,2.09,2.09,0,0,0,.75-.81,2.29,2.29,0,0,0,.28-1.14,2.34,2.34,0,0,0-.28-1.16,2,2,0,0,0-.75-.8,2.13,2.13,0,0,0-2.18,0,2.12,2.12,0,0,0-.77.8,2.34,2.34,0,0,0-.28,1.16,2.29,2.29,0,0,0,.28,1.14,2.22,2.22,0,0,0,.77.81A2.11,2.11,0,0,0,178.45,77.54Zm2.68,1a.57.57,0,0,1-.43-.18.57.57,0,0,1-.18-.44V76.14l.23-1.27,1,.43V78a.61.61,0,0,1-.62.62Z"/><path class="cls-6" d="M185.13,78.57a1.6,1.6,0,0,1-.94-.28,2,2,0,0,1-.63-.79,2.74,2.74,0,0,1-.23-1.15V69.8a.6.6,0,0,1,.17-.43.63.63,0,0,1,.86,0,.6.6,0,0,1,.17.43v6.55a1.5,1.5,0,0,0,.17.74.48.48,0,0,0,.43.28h.3a.51.51,0,0,1,.39.17A.63.63,0,0,1,186,78a.54.54,0,0,1-.23.44,1,1,0,0,1-.59.16Z"/><path class="cls-2" d="M269.3,78.57a.6.6,0,0,1-.44-.18.59.59,0,0,1-.18-.44V69.83a.58.58,0,0,1,.18-.45.6.6,0,0,1,.44-.18h5.43a.64.64,0,0,1,.44.16.58.58,0,0,1,.17.43.55.55,0,0,1-.17.41.63.63,0,0,1-.44.15h-4.8v2.92h3.44a.6.6,0,0,1,.44.16.54.54,0,0,1,.17.42.53.53,0,0,1-.17.41.6.6,0,0,1-.44.16h-3.44v3h4.8a.6.6,0,0,1,.44.16.53.53,0,0,1,.17.41.57.57,0,0,1-.17.42.6.6,0,0,1-.44.16Z"/><path class="cls-2" d="M277.57,78.59a.59.59,0,0,1-.44-.18A.6.6,0,0,1,277,78V72.63a.6.6,0,0,1,.17-.44.62.62,0,0,1,.44-.17.6.6,0,0,1,.44.17.57.57,0,0,1,.17.44V78a.57.57,0,0,1-.17.44A.57.57,0,0,1,277.57,78.59Zm4,0a.59.59,0,0,1-.44-.18A.57.57,0,0,1,281,78V74.54a1.5,1.5,0,0,0-.38-1.12,1.33,1.33,0,0,0-1-.37,1.36,1.36,0,0,0-1,.44,1.53,1.53,0,0,0-.41,1.1h-.75a2.86,2.86,0,0,1,.31-1.37,2.28,2.28,0,0,1,.86-.93,2.33,2.33,0,0,1,1.26-.34,2.39,2.39,0,0,1,1.21.3,2,2,0,0,1,.83.88,3.19,3.19,0,0,1,.29,1.41V78a.6.6,0,0,1-.17.44A.57.57,0,0,1,281.58,78.59Zm4,0a.57.57,0,0,1-.43-.18A.57.57,0,0,1,285,78V74.54a1.5,1.5,0,0,0-.37-1.12,1.44,1.44,0,0,0-2,.07,1.52,1.52,0,0,0-.4,1.1h-1a2.75,2.75,0,0,1,.34-1.37,2.34,2.34,0,0,1,.94-.93,2.78,2.78,0,0,1,1.39-.34,2.41,2.41,0,0,1,1.21.3,2,2,0,0,1,.82.88,3.06,3.06,0,0,1,.3,1.41V78a.6.6,0,0,1-.17.44A.58.58,0,0,1,285.57,78.59Z"/><path class="cls-2" d="M291.19,78.62a3.45,3.45,0,0,1-1.72-.42A3.23,3.23,0,0,1,288.3,77a3.45,3.45,0,0,1-.42-1.72,3.5,3.5,0,0,1,.42-1.74,3.13,3.13,0,0,1,1.17-1.17,3.35,3.35,0,0,1,1.72-.43,3.28,3.28,0,0,1,1.7.43,3,3,0,0,1,1.17,1.17,3.4,3.4,0,0,1,.43,1.74,3.45,3.45,0,0,1-.42,1.72,3.13,3.13,0,0,1-1.16,1.18A3.45,3.45,0,0,1,291.19,78.62Zm0-1.08a2,2,0,0,0,1.1-.29,2,2,0,0,0,.75-.79,2.39,2.39,0,0,0,.27-1.16,2.46,2.46,0,0,0-.27-1.17,2,2,0,0,0-.75-.8,2.23,2.23,0,0,0-2.2,0,2,2,0,0,0-.76.8,2.47,2.47,0,0,0-.28,1.17,2.4,2.4,0,0,0,.28,1.16,2.07,2.07,0,0,0,1.86,1.08Z"/><path class="cls-2" d="M296,73.28a.6.6,0,0,1-.41-.14.5.5,0,0,1-.16-.36.53.53,0,0,1,.16-.39.6.6,0,0,1,.41-.14h2.77a.62.62,0,0,1,.41.14.53.53,0,0,1,.15.39.49.49,0,0,1-.15.36.62.62,0,0,1-.41.14Zm2.66,5.29a2,2,0,0,1-1.08-.3,2.11,2.11,0,0,1-.75-.84,2.42,2.42,0,0,1-.28-1.18V70.52a.6.6,0,0,1,.17-.43.63.63,0,0,1,.86,0,.6.6,0,0,1,.17.43v5.73a1.26,1.26,0,0,0,.26.8.81.81,0,0,0,.65.32h.41a.5.5,0,0,1,.37.17.63.63,0,0,1,.15.43.57.57,0,0,1-.2.44.76.76,0,0,1-.51.16Z"/><path class="cls-2" d="M301.86,70.94a.79.79,0,0,1-.56-.23.8.8,0,0,1,0-1.12.79.79,0,0,1,.56-.23.8.8,0,0,1,.56.23.8.8,0,0,1,0,1.12A.8.8,0,0,1,301.86,70.94Zm0,7.63a.58.58,0,0,1-.61-.61V72.62a.57.57,0,0,1,.17-.44.62.62,0,0,1,.44-.17.58.58,0,0,1,.61.61V78a.62.62,0,0,1-.17.44A.57.57,0,0,1,301.86,78.57Z"/><path class="cls-2" d="M307.73,78.62A3.45,3.45,0,0,1,306,78.2,3.08,3.08,0,0,1,304.84,77a3.46,3.46,0,0,1-.43-1.72,3.51,3.51,0,0,1,.43-1.74A3,3,0,0,1,306,72.39a3.35,3.35,0,0,1,1.72-.43,3.31,3.31,0,0,1,1.7.43,3,3,0,0,1,1.17,1.17A3.51,3.51,0,0,1,311,75.3a3.45,3.45,0,0,1-.42,1.72,3.08,3.08,0,0,1-1.17,1.18A3.41,3.41,0,0,1,307.73,78.62Zm0-1.08a2,2,0,0,0,1.1-.29,2,2,0,0,0,.75-.79,2.39,2.39,0,0,0,.27-1.16,2.46,2.46,0,0,0-.27-1.17,2,2,0,0,0-.75-.8,2.25,2.25,0,0,0-2.21,0,2,2,0,0,0-.75.8,2.36,2.36,0,0,0-.28,1.17,2.29,2.29,0,0,0,.28,1.16,2,2,0,0,0,.75.79A2,2,0,0,0,307.73,77.54Z"/><path class="cls-2" d="M313.46,78.59a.6.6,0,0,1-.61-.62V72.62a.6.6,0,0,1,.17-.44.64.64,0,0,1,.44-.17.63.63,0,0,1,.45.17.6.6,0,0,1,.16.44V78a.58.58,0,0,1-.61.62Zm4.93,0a.57.57,0,0,1-.43-.18.57.57,0,0,1-.18-.44V75a2.15,2.15,0,0,0-.25-1.11,1.58,1.58,0,0,0-.68-.65,2.17,2.17,0,0,0-1-.21,2,2,0,0,0-.91.21,1.73,1.73,0,0,0-.65.54,1.34,1.34,0,0,0-.24.79h-.75a2.57,2.57,0,0,1,.36-1.35,2.61,2.61,0,0,1,1-.94,2.93,2.93,0,0,1,1.42-.35,3.15,3.15,0,0,1,1.49.35,2.64,2.64,0,0,1,1,1A3.48,3.48,0,0,1,319,75v3a.61.61,0,0,1-.62.62Z"/><path class="cls-2" d="M323.77,78.62a2.82,2.82,0,0,1-1.57-.44A3.05,3.05,0,0,1,321.1,77a3.53,3.53,0,0,1-.4-1.7,3.3,3.3,0,0,1,.44-1.71,3.21,3.21,0,0,1,1.18-1.19A3.33,3.33,0,0,1,324,72a3.29,3.29,0,0,1,1.68.44,3.21,3.21,0,0,1,1.18,1.19,3.4,3.4,0,0,1,.44,1.71h-.47a3.53,3.53,0,0,1-.4,1.7,3.05,3.05,0,0,1-1.1,1.18A2.82,2.82,0,0,1,323.77,78.62Zm.24-1.08a2.09,2.09,0,0,0,1.09-.29,2.19,2.19,0,0,0,.76-.81,2.4,2.4,0,0,0,.27-1.14,2.45,2.45,0,0,0-.27-1.16,2.09,2.09,0,0,0-.76-.8A2,2,0,0,0,324,73a2.05,2.05,0,0,0-1.09.3,2,2,0,0,0-.76.8,2.35,2.35,0,0,0-.29,1.16,2.3,2.3,0,0,0,.29,1.14,2.12,2.12,0,0,0,.76.81A2.14,2.14,0,0,0,324,77.54Zm2.69,1a.59.59,0,0,1-.44-.18.57.57,0,0,1-.17-.44V76.14l.22-1.27,1,.43V78a.6.6,0,0,1-.61.62Z"/><path class="cls-2" d="M330.69,78.57a1.57,1.57,0,0,1-.93-.28,2,2,0,0,1-.64-.79,2.74,2.74,0,0,1-.23-1.15V69.8a.58.58,0,0,1,.6-.6.62.62,0,0,1,.44.17.59.59,0,0,1,.16.43v6.55a1.5,1.5,0,0,0,.17.74.49.49,0,0,0,.43.28h.3a.51.51,0,0,1,.39.17.63.63,0,0,1,.15.43.53.53,0,0,1-.22.44,1,1,0,0,1-.59.16Z"/><path class="cls-1" d="M408.35,78.69a4.62,4.62,0,0,1-1.82-.36,4.73,4.73,0,0,1-1.47-1,4.92,4.92,0,0,1-1-1.53,5.17,5.17,0,0,1-.35-1.9,5.07,5.07,0,0,1,.35-1.88,4.87,4.87,0,0,1,1-1.52,4.48,4.48,0,0,1,3.29-1.4,4.67,4.67,0,0,1,1.59.24,4.84,4.84,0,0,1,1.34.79,1.06,1.06,0,0,1,.15.15.71.71,0,0,1,.07.16.92.92,0,0,1,0,.19.51.51,0,0,1-.16.37.63.63,0,0,1-.39.17.66.66,0,0,1-.45-.15,3.68,3.68,0,0,0-.92-.59,3.3,3.3,0,0,0-1.25-.2,3.15,3.15,0,0,0-1.33.29,3.43,3.43,0,0,0-1.1.79,3.75,3.75,0,0,0-.74,1.17,3.93,3.93,0,0,0-.26,1.42,4,4,0,0,0,.26,1.44,3.75,3.75,0,0,0,.74,1.17,3.56,3.56,0,0,0,1.1.78,3.14,3.14,0,0,0,1.33.28,3.22,3.22,0,0,0,1.16-.21,4.54,4.54,0,0,0,1.05-.58.64.64,0,0,1,.42-.14.53.53,0,0,1,.5.59.48.48,0,0,1-.05.23.6.6,0,0,1-.14.21,4.91,4.91,0,0,1-1.39.78A4.47,4.47,0,0,1,408.35,78.69Z"/><path class="cls-1" d="M415.85,78.62a3.45,3.45,0,0,1-1.72-.42A3.23,3.23,0,0,1,413,77a3.45,3.45,0,0,1-.42-1.72,3.5,3.5,0,0,1,.42-1.74,3.13,3.13,0,0,1,1.17-1.17,3.35,3.35,0,0,1,1.72-.43,3.28,3.28,0,0,1,1.7.43,3,3,0,0,1,1.17,1.17,3.4,3.4,0,0,1,.43,1.74,3.45,3.45,0,0,1-.42,1.72,3.13,3.13,0,0,1-1.16,1.18A3.45,3.45,0,0,1,415.85,78.62Zm0-1.08a2,2,0,0,0,1.1-.29,2,2,0,0,0,.75-.79A2.39,2.39,0,0,0,418,75.3a2.46,2.46,0,0,0-.27-1.17,2,2,0,0,0-.75-.8,2.23,2.23,0,0,0-2.2,0,2,2,0,0,0-.76.8,2.47,2.47,0,0,0-.28,1.17,2.4,2.4,0,0,0,.28,1.16,2.07,2.07,0,0,0,1.86,1.08Z"/><path class="cls-1" d="M423.71,78.62a3,3,0,0,1-1.59-.42A3.1,3.1,0,0,1,421,77a3.66,3.66,0,0,1-.39-1.72,3.5,3.5,0,0,1,.42-1.74,3.13,3.13,0,0,1,1.17-1.17A3.35,3.35,0,0,1,424,72a3.28,3.28,0,0,1,1.7.43,3,3,0,0,1,1.17,1.17,3.4,3.4,0,0,1,.43,1.74h-.71a3.92,3.92,0,0,1-.36,1.72,3,3,0,0,1-1,1.18A2.58,2.58,0,0,1,423.71,78.62Zm.22,2.68a3.77,3.77,0,0,1-1.6-.34,3.27,3.27,0,0,1-1.26-1,.52.52,0,0,1-.11-.42.49.49,0,0,1,.23-.35.56.56,0,0,1,.45-.1.69.69,0,0,1,.38.24,2.12,2.12,0,0,0,.81.64,2.67,2.67,0,0,0,1.12.23,2.05,2.05,0,0,0,1.06-.28,2,2,0,0,0,.78-.81,2.8,2.8,0,0,0,.28-1.32V76.1l.4-1,.78.25v2.59a3.53,3.53,0,0,1-.42,1.72,3.15,3.15,0,0,1-1.17,1.23A3.22,3.22,0,0,1,423.93,81.3Zm0-3.76a2,2,0,0,0,1.1-.29,2,2,0,0,0,.75-.79,2.39,2.39,0,0,0,.27-1.16,2.46,2.46,0,0,0-.27-1.17,2,2,0,0,0-.75-.8,2.23,2.23,0,0,0-2.2,0,2,2,0,0,0-.76.8,2.47,2.47,0,0,0-.28,1.17,2.4,2.4,0,0,0,.28,1.16A2.07,2.07,0,0,0,424,77.54Z"/><path class="cls-1" d="M429.69,78.59a.61.61,0,0,1-.62-.62V72.62a.57.57,0,0,1,.18-.44.61.61,0,0,1,1.05.44V78a.6.6,0,0,1-.17.44A.57.57,0,0,1,429.69,78.59Zm4.93,0a.59.59,0,0,1-.44-.18A.57.57,0,0,1,434,78V75a2.14,2.14,0,0,0-.26-1.11,1.55,1.55,0,0,0-.67-.65,2.21,2.21,0,0,0-1-.21,1.94,1.94,0,0,0-.91.21,1.66,1.66,0,0,0-.65.54,1.34,1.34,0,0,0-.24.79h-.76a2.49,2.49,0,0,1,.37-1.35,2.59,2.59,0,0,1,1-.94,2.94,2.94,0,0,1,1.43-.35,3.14,3.14,0,0,1,1.48.35,2.58,2.58,0,0,1,1,1,3.48,3.48,0,0,1,.38,1.68v3a.6.6,0,0,1-.61.62Z"/><path class="cls-1" d="M438,70.94a.79.79,0,1,1,.56-.23A.79.79,0,0,1,438,70.94Zm0,7.63a.58.58,0,0,1-.44-.17.62.62,0,0,1-.17-.44V72.62a.6.6,0,0,1,.17-.44A.62.62,0,0,1,438,72a.6.6,0,0,1,.44.17.57.57,0,0,1,.17.44V78a.58.58,0,0,1-.17.44A.57.57,0,0,1,438,78.57Z"/><path class="cls-1" d="M440.61,73.28a.6.6,0,0,1-.41-.14.46.46,0,0,1-.16-.36.5.5,0,0,1,.16-.39.6.6,0,0,1,.41-.14h2.77a.62.62,0,0,1,.41.14.53.53,0,0,1,.15.39.49.49,0,0,1-.15.36.62.62,0,0,1-.41.14Zm2.66,5.29a2,2,0,0,1-1.08-.3,2.21,2.21,0,0,1-.76-.84,2.53,2.53,0,0,1-.27-1.18V70.52a.56.56,0,0,1,.17-.43.58.58,0,0,1,.43-.17.58.58,0,0,1,.6.6v5.73a1.26,1.26,0,0,0,.26.8.8.8,0,0,0,.65.32h.41a.48.48,0,0,1,.36.17.63.63,0,0,1,.15.43.56.56,0,0,1-.19.44.8.8,0,0,1-.51.16Z"/><path class="cls-1" d="M446.43,70.94a.77.77,0,0,1-.56-.23.77.77,0,0,1,0-1.12.78.78,0,0,1,1.11,0,.79.79,0,0,1-.55,1.35Zm0,7.63a.57.57,0,0,1-.44-.17.59.59,0,0,1-.18-.44V72.62a.57.57,0,0,1,.18-.44.61.61,0,0,1,1.05.44V78a.62.62,0,0,1-.17.44A.57.57,0,0,1,446.43,78.57Z"/><path class="cls-1" d="M451.54,78.56a.64.64,0,0,1-.58-.39l-2.54-5.37a.47.47,0,0,1,0-.4.58.58,0,0,1,.31-.31.49.49,0,0,1,.41,0,.57.57,0,0,1,.32.27l2.37,5.13h-.57l2.35-5.13a.56.56,0,0,1,.33-.27.59.59,0,0,1,.45,0,.56.56,0,0,1,.29.3.49.49,0,0,1,0,.41l-2.54,5.37A.58.58,0,0,1,451.54,78.56Z"/><path class="cls-1" d="M458.74,78.62A3.62,3.62,0,0,1,457,78.2,3.12,3.12,0,0,1,455.76,77a3.26,3.26,0,0,1-.44-1.72,3.61,3.61,0,0,1,.41-1.74,3,3,0,0,1,1.15-1.17,3.23,3.23,0,0,1,1.68-.43,3,3,0,0,1,1.61.42,2.63,2.63,0,0,1,1,1.14,3.7,3.7,0,0,1,.36,1.67.53.53,0,0,1-.16.38.55.55,0,0,1-.4.15h-4.83v-1H461l-.49.33a2.63,2.63,0,0,0-.24-1.07,1.77,1.77,0,0,0-1.67-1,2.17,2.17,0,0,0-1.17.3,1.92,1.92,0,0,0-.74.83,2.62,2.62,0,0,0-.25,1.18,2.26,2.26,0,0,0,.3,1.17,2.11,2.11,0,0,0,.83.82,2.39,2.39,0,0,0,1.21.3,2.58,2.58,0,0,0,1.39-.46.7.7,0,0,1,.39-.13.5.5,0,0,1,.37.12.59.59,0,0,1,.21.4.41.41,0,0,1-.19.37,3.32,3.32,0,0,1-1,.53A3.82,3.82,0,0,1,458.74,78.62Z"/><path class="cls-4" d="M540.73,78.69a4.43,4.43,0,0,1-1.46-.24,3.74,3.74,0,0,1-1.21-.67,2.64,2.64,0,0,1-.76-1,.49.49,0,0,1,0-.47.58.58,0,0,1,.42-.28.59.59,0,0,1,.43.07.71.71,0,0,1,.32.34A1.59,1.59,0,0,0,539,77a2.62,2.62,0,0,0,.8.41,3.19,3.19,0,0,0,1,.16,3.08,3.08,0,0,0,1.07-.18,1.9,1.9,0,0,0,.78-.53,1.22,1.22,0,0,0,.3-.84,1.56,1.56,0,0,0-.49-1.14,2.65,2.65,0,0,0-1.64-.63,4,4,0,0,1-2.34-.87,2.29,2.29,0,0,1-.85-1.81,2.07,2.07,0,0,1,.44-1.35,2.75,2.75,0,0,1,1.21-.84,4.75,4.75,0,0,1,1.69-.29,3.54,3.54,0,0,1,1.28.21,3,3,0,0,1,1,.56,3.87,3.87,0,0,1,.7.85.73.73,0,0,1,.14.5.51.51,0,0,1-.23.37.62.62,0,0,1-.5.06.71.71,0,0,1-.39-.31,2.05,2.05,0,0,0-1.12-1,2.52,2.52,0,0,0-.87-.14,2.84,2.84,0,0,0-1.49.33,1.13,1.13,0,0,0-.6,1,1.42,1.42,0,0,0,.18.69,1.56,1.56,0,0,0,.69.57,4.6,4.6,0,0,0,1.43.34,3.69,3.69,0,0,1,2.23.87,2.46,2.46,0,0,1,.8,1.91,2.49,2.49,0,0,1-.28,1.19,2.58,2.58,0,0,1-.76.85,3.84,3.84,0,0,1-1.08.51A4.73,4.73,0,0,1,540.73,78.69Z"/><path class="cls-4" d="M546.51,81.38a.62.62,0,0,1-.44-.17.58.58,0,0,1-.17-.44V75.3a3.4,3.4,0,0,1,.44-1.71A3.24,3.24,0,0,1,549.19,72a3.24,3.24,0,0,1,2.88,1.63,3.4,3.4,0,0,1,.44,1.71,3.64,3.64,0,0,1-.4,1.7,3.13,3.13,0,0,1-1.1,1.18,2.84,2.84,0,0,1-1.57.44,3,3,0,0,1-1.31-.29,3.14,3.14,0,0,1-1-.8v3.24a.62.62,0,0,1-.17.44A.6.6,0,0,1,546.51,81.38Zm2.68-3.84a2.12,2.12,0,0,0,1.1-.29,2.19,2.19,0,0,0,.76-.81,2.29,2.29,0,0,0,.28-1.14,2.34,2.34,0,0,0-.28-1.16,2.09,2.09,0,0,0-.76-.8,2.1,2.1,0,0,0-2.94.8,2.34,2.34,0,0,0-.28,1.16,2.29,2.29,0,0,0,.28,1.14,2,2,0,0,0,1.84,1.1Z"/><path class="cls-4" d="M555.06,70.94a.8.8,0,0,1-.56-.23.8.8,0,0,1,0-1.12.8.8,0,0,1,.56-.23.79.79,0,0,1,.56.23.77.77,0,0,1,0,1.12A.79.79,0,0,1,555.06,70.94Zm0,7.63a.56.56,0,0,1-.43-.17.59.59,0,0,1-.18-.44V72.62a.57.57,0,0,1,.18-.44.6.6,0,0,1,.43-.17.61.61,0,0,1,.45.17.6.6,0,0,1,.16.44V78a.61.61,0,0,1-.16.44A.57.57,0,0,1,555.06,78.57Z"/><path class="cls-4" d="M558.55,78.57a.6.6,0,0,1-.44-.15A.61.61,0,0,1,558,78V72.61a.61.61,0,0,1,.16-.44.57.57,0,0,1,.44-.16.53.53,0,0,1,.6.6V78a.63.63,0,0,1-.15.45A.61.61,0,0,1,558.55,78.57Zm0-4.1a2.36,2.36,0,0,1,.36-1.29,2.6,2.6,0,0,1,1-.91,2.69,2.69,0,0,1,1.32-.33,2,2,0,0,1,1.07.23.49.49,0,0,1,.27.56.49.49,0,0,1-.13.26.44.44,0,0,1-.24.11.72.72,0,0,1-.29,0,3.39,3.39,0,0,0-1.38,0,1.8,1.8,0,0,0-1,.49,1.23,1.23,0,0,0-.36.91Z"/><path class="cls-4" d="M564.52,70.94a.79.79,0,0,1-.56-.23.8.8,0,0,1,0-1.12.79.79,0,0,1,.56-.23.8.8,0,0,1,.56.23.8.8,0,0,1,0,1.12A.8.8,0,0,1,564.52,70.94Zm0,7.63a.58.58,0,0,1-.61-.61V72.62a.57.57,0,0,1,.17-.44.62.62,0,0,1,.44-.17.58.58,0,0,1,.61.61V78a.62.62,0,0,1-.17.44A.57.57,0,0,1,564.52,78.57Z"/><path class="cls-4" d="M567.13,73.28a.59.59,0,0,1-.4-.14.46.46,0,0,1-.16-.36.5.5,0,0,1,.16-.39.59.59,0,0,1,.4-.14h2.78a.59.59,0,0,1,.4.14.5.5,0,0,1,.16.39.46.46,0,0,1-.16.36.59.59,0,0,1-.4.14Zm2.67,5.29a2,2,0,0,1-1.08-.3,2.21,2.21,0,0,1-.76-.84,2.53,2.53,0,0,1-.27-1.18V70.52a.59.59,0,0,1,.16-.43.62.62,0,0,1,.44-.17.58.58,0,0,1,.6.6v5.73a1.2,1.2,0,0,0,.26.8.8.8,0,0,0,.65.32h.41a.48.48,0,0,1,.36.17.63.63,0,0,1,.15.43.54.54,0,0,1-.2.44.76.76,0,0,1-.51.16Z"/><path class="cls-4" d="M575,78.63a3,3,0,0,1-1.48-.35,2.52,2.52,0,0,1-1-1,3.42,3.42,0,0,1-.38-1.68v-3a.62.62,0,0,1,.17-.44.64.64,0,0,1,.44-.17.62.62,0,0,1,.44.17.58.58,0,0,1,.17.44v3a2.17,2.17,0,0,0,.26,1.11,1.52,1.52,0,0,0,.68.65,2.19,2.19,0,0,0,1,.21,2.08,2.08,0,0,0,.92-.2,1.66,1.66,0,0,0,.64-.56A1.33,1.33,0,0,0,577,76h.76a2.49,2.49,0,0,1-.37,1.35,2.66,2.66,0,0,1-1,1A3,3,0,0,1,575,78.63Zm2.65-.06a.56.56,0,0,1-.43-.17A.59.59,0,0,1,577,78V72.61a.57.57,0,0,1,.18-.44.56.56,0,0,1,.43-.17.57.57,0,0,1,.45.17.6.6,0,0,1,.17.44V78a.62.62,0,0,1-.17.44A.57.57,0,0,1,577.63,78.57Z"/><path class="cls-4" d="M583.14,78.62a2.82,2.82,0,0,1-1.57-.44,3.13,3.13,0,0,1-1.1-1.18,3.53,3.53,0,0,1-.4-1.7,3.4,3.4,0,0,1,.44-1.71,3.23,3.23,0,0,1,1.19-1.19,3.29,3.29,0,0,1,1.68-.44,3.24,3.24,0,0,1,2.86,1.63,3.3,3.3,0,0,1,.44,1.71h-.47a3.53,3.53,0,0,1-.4,1.7,3.05,3.05,0,0,1-1.1,1.18A2.8,2.8,0,0,1,583.14,78.62Zm.24-1.08a2.09,2.09,0,0,0,1.09-.29,2.12,2.12,0,0,0,.76-.81,2.4,2.4,0,0,0,.28-1.14,2.46,2.46,0,0,0-.28-1.16,2.08,2.08,0,0,0-1.85-1.1,2,2,0,0,0-1.08.3,2,2,0,0,0-.77.8,2.34,2.34,0,0,0-.28,1.16,2.29,2.29,0,0,0,.28,1.14,2.14,2.14,0,0,0,.77.81A2.08,2.08,0,0,0,583.38,77.54Zm2.69,1a.59.59,0,0,1-.44-.18.6.6,0,0,1-.17-.44V76.14l.23-1.27,1,.43V78a.6.6,0,0,1-.17.44A.59.59,0,0,1,586.07,78.59Z"/><path class="cls-4" d="M590.07,78.57a1.58,1.58,0,0,1-.94-.28,2.09,2.09,0,0,1-.64-.79,2.74,2.74,0,0,1-.22-1.15V69.8a.59.59,0,0,1,.16-.43.62.62,0,0,1,.44-.17.58.58,0,0,1,.6.6v6.55a1.5,1.5,0,0,0,.16.74.5.5,0,0,0,.44.28h.3a.51.51,0,0,1,.39.17.63.63,0,0,1,.15.43.54.54,0,0,1-.23.44,1,1,0,0,1-.59.16Z"/></g></g></svg>