<svg xmlns="http://www.w3.org/2000/svg" viewBox="0 0 11.63 11.63"><defs><style>.cls-1{fill:#ea5455;}</style></defs><g id="Layer_2" data-name="Layer 2"><g id="Layer_1-2" data-name="Layer 1"><path class="cls-1" d="M11.62,5.81A5.81,5.81,0,1,1,5.81,0,5.81,5.81,0,0,1,11.62,5.81ZM3.94,5.44a.75.75,0,0,0,0-1.5.75.75,0,0,0,0,1.5ZM8.06,8.56c-.17-.94-1.41-1.44-2.25-1.44s-2.08.5-2.24,1.44A.37.37,0,0,0,4.05,9a7.32,7.32,0,0,1,1.76-.36A7.29,7.29,0,0,1,7.58,9,.37.37,0,0,0,8.06,8.56Zm.38-3.87a.75.75,0,1,0-.75.75A.75.75,0,0,0,8.44,4.69Z"/></g></g></svg>