<svg xmlns="http://www.w3.org/2000/svg" viewBox="0 0 11.63 11.63"><defs><style>.cls-1{fill:#f07b3f;}</style></defs><g id="Layer_2" data-name="Layer 2"><g id="Layer_1-2" data-name="Layer 1"><path class="cls-1" d="M11.62,5.81A5.81,5.81,0,1,1,5.81,0,5.81,5.81,0,0,1,11.62,5.81ZM8.5,8.57a3.5,3.5,0,0,0-5.38,0,.38.38,0,0,0,.58.48,2.73,2.73,0,0,1,2.11-1,2.76,2.76,0,0,1,2.12,1A.37.37,0,0,0,8.5,8.57ZM3.19,4.69a.75.75,0,1,0,.75-.75A.75.75,0,0,0,3.19,4.69Zm3.75,0a.75.75,0,1,0,.75-.75A.75.75,0,0,0,6.94,4.69Z"/></g></g></svg>