<svg xmlns="http://www.w3.org/2000/svg" viewBox="0 0 11.63 11.63"><defs><style>.cls-1{fill:#87a60f;}</style></defs><g id="Layer_2" data-name="Layer 2"><g id="Layer_1-2" data-name="Layer 1"><path class="cls-1" d="M11.62,5.81A5.81,5.81,0,1,1,5.81,0,5.81,5.81,0,0,1,11.62,5.81ZM9.18,7.75a.37.37,0,0,0-.48-.42,10,10,0,0,1-2.89.36,10,10,0,0,1-2.88-.36.38.38,0,0,0-.49.42C2.66,9,4.39,9.94,5.81,9.94S9,9,9.18,7.75ZM2.63,5.05a.19.19,0,0,0,.35.1l.22-.39a.86.86,0,0,1,.74-.51.86.86,0,0,1,.74.51l.22.39a.19.19,0,0,0,.35-.1c-.08-1-.75-1.67-1.31-1.67A1.66,1.66,0,0,0,2.63,5.05Zm3.75,0a.19.19,0,0,0,.35.1L7,4.76a.86.86,0,0,1,.74-.51.86.86,0,0,1,.74.51l.22.39A.19.19,0,0,0,9,5.05c-.08-1-.75-1.67-1.31-1.67A1.66,1.66,0,0,0,6.38,5.05Z"/></g></g></svg>